G04 #@! TF.GenerationSoftware,KiCad,Pcbnew,5.0.2-bee76a0~70~ubuntu16.04.1*
G04 #@! TF.CreationDate,2018-12-16T16:52:19+05:30*
G04 #@! TF.ProjectId,voltage_6V,766f6c74-6167-4655-9f36-562e6b696361,rev?*
G04 #@! TF.SameCoordinates,Original*
G04 #@! TF.FileFunction,Soldermask,Top*
G04 #@! TF.FilePolarity,Negative*
%FSLAX46Y46*%
G04 Gerber Fmt 4.6, Leading zero omitted, Abs format (unit mm)*
G04 Created by KiCad (PCBNEW 5.0.2-bee76a0~70~ubuntu16.04.1) date Sun Dec 16 16:52:19 2018*
%MOMM*%
%LPD*%
G01*
G04 APERTURE LIST*
%ADD10C,0.100000*%
G04 APERTURE END LIST*
D10*
G36*
X158379196Y-101749958D02*
X158615780Y-101847954D01*
X158828705Y-101990226D01*
X159009774Y-102171295D01*
X159152046Y-102384220D01*
X159250042Y-102620804D01*
X159300000Y-102871960D01*
X159300000Y-103128040D01*
X159250042Y-103379196D01*
X159152046Y-103615780D01*
X159009774Y-103828705D01*
X158828705Y-104009774D01*
X158615780Y-104152046D01*
X158379196Y-104250042D01*
X158128040Y-104300000D01*
X157871960Y-104300000D01*
X157620804Y-104250042D01*
X157384220Y-104152046D01*
X157171295Y-104009774D01*
X156990226Y-103828705D01*
X156847954Y-103615780D01*
X156749958Y-103379196D01*
X156700000Y-103128040D01*
X156700000Y-102871960D01*
X156749958Y-102620804D01*
X156847954Y-102384220D01*
X156990226Y-102171295D01*
X157171295Y-101990226D01*
X157384220Y-101847954D01*
X157620804Y-101749958D01*
X157871960Y-101700000D01*
X158128040Y-101700000D01*
X158379196Y-101749958D01*
X158379196Y-101749958D01*
G37*
G36*
X142879196Y-101749958D02*
X143115780Y-101847954D01*
X143328705Y-101990226D01*
X143509774Y-102171295D01*
X143652046Y-102384220D01*
X143750042Y-102620804D01*
X143800000Y-102871960D01*
X143800000Y-103128040D01*
X143750042Y-103379196D01*
X143652046Y-103615780D01*
X143509774Y-103828705D01*
X143328705Y-104009774D01*
X143115780Y-104152046D01*
X142879196Y-104250042D01*
X142628040Y-104300000D01*
X142371960Y-104300000D01*
X142120804Y-104250042D01*
X141884220Y-104152046D01*
X141671295Y-104009774D01*
X141490226Y-103828705D01*
X141347954Y-103615780D01*
X141249958Y-103379196D01*
X141200000Y-103128040D01*
X141200000Y-102871960D01*
X141249958Y-102620804D01*
X141347954Y-102384220D01*
X141490226Y-102171295D01*
X141671295Y-101990226D01*
X141884220Y-101847954D01*
X142120804Y-101749958D01*
X142371960Y-101700000D01*
X142628040Y-101700000D01*
X142879196Y-101749958D01*
X142879196Y-101749958D01*
G37*
G36*
X145797974Y-99343148D02*
X145832568Y-99353642D01*
X145872128Y-99374787D01*
X145878069Y-99378757D01*
X145900708Y-99388136D01*
X145924741Y-99392917D01*
X145949245Y-99392919D01*
X145973279Y-99388140D01*
X145995918Y-99378763D01*
X146001858Y-99374795D01*
X146041432Y-99353642D01*
X146076026Y-99343148D01*
X146118141Y-99339000D01*
X146725859Y-99339000D01*
X146767974Y-99343148D01*
X146802568Y-99353642D01*
X146834441Y-99370678D01*
X146862387Y-99393613D01*
X146885322Y-99421559D01*
X146902358Y-99453432D01*
X146912852Y-99488026D01*
X146917000Y-99530141D01*
X146917000Y-100187859D01*
X146912852Y-100229974D01*
X146902358Y-100264568D01*
X146885322Y-100296441D01*
X146862387Y-100324387D01*
X146834441Y-100347322D01*
X146802568Y-100364358D01*
X146767974Y-100374852D01*
X146725859Y-100379000D01*
X146118141Y-100379000D01*
X146076026Y-100374852D01*
X146041432Y-100364358D01*
X146001872Y-100343213D01*
X145995931Y-100339243D01*
X145973292Y-100329864D01*
X145949259Y-100325083D01*
X145924755Y-100325081D01*
X145900721Y-100329860D01*
X145878082Y-100339237D01*
X145872142Y-100343205D01*
X145832568Y-100364358D01*
X145797974Y-100374852D01*
X145755859Y-100379000D01*
X145148141Y-100379000D01*
X145106026Y-100374852D01*
X145071432Y-100364358D01*
X145039559Y-100347322D01*
X145011613Y-100324387D01*
X144988678Y-100296441D01*
X144971642Y-100264568D01*
X144961148Y-100229974D01*
X144957000Y-100187859D01*
X144957000Y-99530141D01*
X144961148Y-99488026D01*
X144971642Y-99453432D01*
X144988678Y-99421559D01*
X145011613Y-99393613D01*
X145039559Y-99370678D01*
X145071432Y-99353642D01*
X145106026Y-99343148D01*
X145148141Y-99339000D01*
X145755859Y-99339000D01*
X145797974Y-99343148D01*
X145797974Y-99343148D01*
G37*
G36*
X154360974Y-96259283D02*
X154395568Y-96269777D01*
X154435128Y-96290922D01*
X154441069Y-96294892D01*
X154463708Y-96304271D01*
X154487741Y-96309052D01*
X154512245Y-96309054D01*
X154536279Y-96304275D01*
X154558918Y-96294898D01*
X154564858Y-96290930D01*
X154604432Y-96269777D01*
X154639026Y-96259283D01*
X154681141Y-96255135D01*
X155288859Y-96255135D01*
X155330974Y-96259283D01*
X155365568Y-96269777D01*
X155397441Y-96286813D01*
X155425387Y-96309748D01*
X155448322Y-96337694D01*
X155465358Y-96369567D01*
X155475852Y-96404161D01*
X155480000Y-96446276D01*
X155480000Y-97103994D01*
X155475852Y-97146109D01*
X155465358Y-97180703D01*
X155442975Y-97222579D01*
X155441864Y-97224243D01*
X155432494Y-97246885D01*
X155427720Y-97270920D01*
X155427728Y-97295424D01*
X155432515Y-97319456D01*
X155441899Y-97342092D01*
X155443006Y-97343749D01*
X155465358Y-97385567D01*
X155475852Y-97420161D01*
X155480000Y-97462276D01*
X155480000Y-98119994D01*
X155475852Y-98162109D01*
X155465358Y-98196703D01*
X155444010Y-98236643D01*
X155434632Y-98259282D01*
X155429852Y-98283315D01*
X155429852Y-98307819D01*
X155434633Y-98331853D01*
X155444009Y-98354490D01*
X155465359Y-98394434D01*
X155475852Y-98429026D01*
X155480000Y-98471141D01*
X155480000Y-99128859D01*
X155475852Y-99170974D01*
X155465358Y-99205568D01*
X155448322Y-99237441D01*
X155425387Y-99265387D01*
X155397441Y-99288322D01*
X155365568Y-99305358D01*
X155330974Y-99315852D01*
X155288859Y-99320000D01*
X154681141Y-99320000D01*
X154639026Y-99315852D01*
X154604432Y-99305358D01*
X154564872Y-99284213D01*
X154558931Y-99280243D01*
X154536292Y-99270864D01*
X154512259Y-99266083D01*
X154487755Y-99266081D01*
X154463721Y-99270860D01*
X154441082Y-99280237D01*
X154435142Y-99284205D01*
X154395568Y-99305358D01*
X154360974Y-99315852D01*
X154318859Y-99320000D01*
X153711141Y-99320000D01*
X153669026Y-99315852D01*
X153634432Y-99305358D01*
X153602559Y-99288322D01*
X153574613Y-99265387D01*
X153551678Y-99237441D01*
X153534642Y-99205568D01*
X153524148Y-99170974D01*
X153520000Y-99128859D01*
X153520000Y-98471141D01*
X153524148Y-98429026D01*
X153534641Y-98394434D01*
X153555991Y-98354490D01*
X153565368Y-98331851D01*
X153570148Y-98307818D01*
X153570148Y-98283314D01*
X153565367Y-98259280D01*
X153555990Y-98236643D01*
X153534642Y-98196703D01*
X153524148Y-98162109D01*
X153520000Y-98119994D01*
X153520000Y-97462276D01*
X153524148Y-97420161D01*
X153534642Y-97385567D01*
X153557025Y-97343691D01*
X153558136Y-97342027D01*
X153567506Y-97319385D01*
X153572280Y-97295350D01*
X153572272Y-97270846D01*
X153567485Y-97246814D01*
X153558101Y-97224178D01*
X153556994Y-97222521D01*
X153534642Y-97180703D01*
X153524148Y-97146109D01*
X153520000Y-97103994D01*
X153520000Y-96446276D01*
X153524148Y-96404161D01*
X153534642Y-96369567D01*
X153551678Y-96337694D01*
X153574613Y-96309748D01*
X153602559Y-96286813D01*
X153634432Y-96269777D01*
X153669026Y-96259283D01*
X153711141Y-96255135D01*
X154318859Y-96255135D01*
X154360974Y-96259283D01*
X154360974Y-96259283D01*
G37*
G36*
X148601000Y-98009000D02*
X147064716Y-98009000D01*
X147064388Y-98008600D01*
X147045446Y-97993054D01*
X147023835Y-97981503D01*
X147000386Y-97974390D01*
X146976000Y-97971988D01*
X146951614Y-97974390D01*
X146928165Y-97981503D01*
X146906554Y-97993054D01*
X146879374Y-98017688D01*
X146862387Y-98038387D01*
X146834441Y-98061322D01*
X146802568Y-98078358D01*
X146767974Y-98088852D01*
X146725859Y-98093000D01*
X146118141Y-98093000D01*
X146076026Y-98088852D01*
X146041432Y-98078358D01*
X146001872Y-98057213D01*
X145995931Y-98053243D01*
X145973292Y-98043864D01*
X145949259Y-98039083D01*
X145924755Y-98039081D01*
X145900721Y-98043860D01*
X145878082Y-98053237D01*
X145872142Y-98057205D01*
X145832568Y-98078358D01*
X145797974Y-98088852D01*
X145755859Y-98093000D01*
X145148141Y-98093000D01*
X145106026Y-98088852D01*
X145071432Y-98078358D01*
X145039559Y-98061322D01*
X145011613Y-98038387D01*
X144988678Y-98010441D01*
X144971642Y-97978568D01*
X144961148Y-97943974D01*
X144957000Y-97901859D01*
X144957000Y-97244141D01*
X144961148Y-97202026D01*
X144971642Y-97167432D01*
X144988678Y-97135559D01*
X145011613Y-97107613D01*
X145039559Y-97084678D01*
X145071432Y-97067642D01*
X145106026Y-97057148D01*
X145148141Y-97053000D01*
X145755859Y-97053000D01*
X145797974Y-97057148D01*
X145832568Y-97067642D01*
X145872128Y-97088787D01*
X145878069Y-97092757D01*
X145900708Y-97102136D01*
X145924741Y-97106917D01*
X145949245Y-97106919D01*
X145973279Y-97102140D01*
X145995918Y-97092763D01*
X146001858Y-97088795D01*
X146041432Y-97067642D01*
X146076026Y-97057148D01*
X146118141Y-97053000D01*
X146725859Y-97053000D01*
X146767974Y-97057148D01*
X146802568Y-97067642D01*
X146834441Y-97084678D01*
X146862387Y-97107613D01*
X146879374Y-97128312D01*
X146896701Y-97145639D01*
X146917076Y-97159252D01*
X146939715Y-97168630D01*
X146963748Y-97173410D01*
X146988253Y-97173410D01*
X147012286Y-97168629D01*
X147034925Y-97159252D01*
X147055300Y-97145638D01*
X147072627Y-97128311D01*
X147086240Y-97107936D01*
X147095618Y-97085297D01*
X147101000Y-97049012D01*
X147101000Y-95359000D01*
X148601000Y-95359000D01*
X148601000Y-98009000D01*
X148601000Y-98009000D01*
G37*
G36*
X152901000Y-98009000D02*
X151401000Y-98009000D01*
X151401000Y-95359000D01*
X152901000Y-95359000D01*
X152901000Y-98009000D01*
X152901000Y-98009000D01*
G37*
G36*
X148339974Y-92660148D02*
X148374568Y-92670642D01*
X148416444Y-92693025D01*
X148418108Y-92694136D01*
X148440750Y-92703506D01*
X148464785Y-92708280D01*
X148489289Y-92708272D01*
X148513321Y-92703485D01*
X148535957Y-92694101D01*
X148537614Y-92692994D01*
X148579432Y-92670642D01*
X148614026Y-92660148D01*
X148656141Y-92656000D01*
X149313859Y-92656000D01*
X149355974Y-92660148D01*
X149390568Y-92670642D01*
X149432444Y-92693025D01*
X149434108Y-92694136D01*
X149456750Y-92703506D01*
X149480785Y-92708280D01*
X149505289Y-92708272D01*
X149529321Y-92703485D01*
X149551957Y-92694101D01*
X149553614Y-92692994D01*
X149595432Y-92670642D01*
X149630026Y-92660148D01*
X149672141Y-92656000D01*
X150329859Y-92656000D01*
X150371974Y-92660148D01*
X150406568Y-92670642D01*
X150448444Y-92693025D01*
X150450108Y-92694136D01*
X150472750Y-92703506D01*
X150496785Y-92708280D01*
X150521289Y-92708272D01*
X150545321Y-92703485D01*
X150567957Y-92694101D01*
X150569614Y-92692994D01*
X150611432Y-92670642D01*
X150646026Y-92660148D01*
X150688141Y-92656000D01*
X151345859Y-92656000D01*
X151387974Y-92660148D01*
X151422568Y-92670642D01*
X151454441Y-92687678D01*
X151482387Y-92710613D01*
X151505322Y-92738559D01*
X151522358Y-92770432D01*
X151532852Y-92805026D01*
X151537000Y-92847141D01*
X151537000Y-93454859D01*
X151532852Y-93496974D01*
X151522358Y-93531568D01*
X151501213Y-93571128D01*
X151497243Y-93577069D01*
X151487864Y-93599708D01*
X151483083Y-93623741D01*
X151483081Y-93648245D01*
X151487860Y-93672279D01*
X151497237Y-93694918D01*
X151501205Y-93700858D01*
X151522358Y-93740432D01*
X151532852Y-93775026D01*
X151537000Y-93817141D01*
X151537000Y-94424859D01*
X151532852Y-94466974D01*
X151522358Y-94501568D01*
X151505322Y-94533441D01*
X151482387Y-94561387D01*
X151454441Y-94584322D01*
X151422568Y-94601358D01*
X151387974Y-94611852D01*
X151345859Y-94616000D01*
X150688141Y-94616000D01*
X150646026Y-94611852D01*
X150611432Y-94601358D01*
X150569556Y-94578975D01*
X150567892Y-94577864D01*
X150545250Y-94568494D01*
X150521215Y-94563720D01*
X150496711Y-94563728D01*
X150472679Y-94568515D01*
X150450043Y-94577899D01*
X150448386Y-94579006D01*
X150406568Y-94601358D01*
X150371974Y-94611852D01*
X150329859Y-94616000D01*
X149672141Y-94616000D01*
X149630026Y-94611852D01*
X149595432Y-94601358D01*
X149553556Y-94578975D01*
X149551892Y-94577864D01*
X149529250Y-94568494D01*
X149505215Y-94563720D01*
X149480711Y-94563728D01*
X149456679Y-94568515D01*
X149434043Y-94577899D01*
X149432386Y-94579006D01*
X149390568Y-94601358D01*
X149355974Y-94611852D01*
X149313859Y-94616000D01*
X148656141Y-94616000D01*
X148614026Y-94611852D01*
X148579432Y-94601358D01*
X148537556Y-94578975D01*
X148535892Y-94577864D01*
X148513250Y-94568494D01*
X148489215Y-94563720D01*
X148464711Y-94563728D01*
X148440679Y-94568515D01*
X148418043Y-94577899D01*
X148416386Y-94579006D01*
X148374568Y-94601358D01*
X148339974Y-94611852D01*
X148297859Y-94616000D01*
X147640141Y-94616000D01*
X147598026Y-94611852D01*
X147563432Y-94601358D01*
X147531559Y-94584322D01*
X147503613Y-94561387D01*
X147480678Y-94533441D01*
X147463642Y-94501568D01*
X147453148Y-94466974D01*
X147449000Y-94424859D01*
X147449000Y-93817141D01*
X147453148Y-93775026D01*
X147463642Y-93740432D01*
X147484787Y-93700872D01*
X147488757Y-93694931D01*
X147498136Y-93672292D01*
X147502917Y-93648259D01*
X147502919Y-93623755D01*
X147498140Y-93599721D01*
X147488763Y-93577082D01*
X147484795Y-93571142D01*
X147463642Y-93531568D01*
X147453148Y-93496974D01*
X147449000Y-93454859D01*
X147449000Y-92847141D01*
X147453148Y-92805026D01*
X147463642Y-92770432D01*
X147480678Y-92738559D01*
X147503613Y-92710613D01*
X147531559Y-92687678D01*
X147563432Y-92670642D01*
X147598026Y-92660148D01*
X147640141Y-92656000D01*
X148297859Y-92656000D01*
X148339974Y-92660148D01*
X148339974Y-92660148D01*
G37*
G36*
X155528000Y-92654000D02*
X153428000Y-92654000D01*
X153428000Y-90554000D01*
X155528000Y-90554000D01*
X155528000Y-92654000D01*
X155528000Y-92654000D01*
G37*
G36*
X154606707Y-88021597D02*
X154683836Y-88029193D01*
X154815787Y-88069220D01*
X154881763Y-88089233D01*
X155064172Y-88186733D01*
X155224054Y-88317946D01*
X155355267Y-88477828D01*
X155452767Y-88660237D01*
X155452767Y-88660238D01*
X155512807Y-88858164D01*
X155533080Y-89064000D01*
X155512807Y-89269836D01*
X155472780Y-89401787D01*
X155452767Y-89467763D01*
X155355267Y-89650172D01*
X155224054Y-89810054D01*
X155064172Y-89941267D01*
X154881763Y-90038767D01*
X154815787Y-90058780D01*
X154683836Y-90098807D01*
X154606707Y-90106404D01*
X154529580Y-90114000D01*
X154426420Y-90114000D01*
X154349293Y-90106404D01*
X154272164Y-90098807D01*
X154140213Y-90058780D01*
X154074237Y-90038767D01*
X153891828Y-89941267D01*
X153731946Y-89810054D01*
X153600733Y-89650172D01*
X153503233Y-89467763D01*
X153483220Y-89401787D01*
X153443193Y-89269836D01*
X153422920Y-89064000D01*
X153443193Y-88858164D01*
X153503233Y-88660238D01*
X153503233Y-88660237D01*
X153600733Y-88477828D01*
X153731946Y-88317946D01*
X153891828Y-88186733D01*
X154074237Y-88089233D01*
X154140213Y-88069220D01*
X154272164Y-88029193D01*
X154349293Y-88021597D01*
X154426420Y-88014000D01*
X154529580Y-88014000D01*
X154606707Y-88021597D01*
X154606707Y-88021597D01*
G37*
G36*
X147280000Y-87647000D02*
X147282402Y-87671386D01*
X147289515Y-87694835D01*
X147301066Y-87716446D01*
X147316612Y-87735388D01*
X147335554Y-87750934D01*
X147357165Y-87762485D01*
X147380614Y-87769598D01*
X147405000Y-87772000D01*
X148175000Y-87772000D01*
X148175000Y-89622000D01*
X146905000Y-89622000D01*
X146880614Y-89624402D01*
X146857165Y-89631515D01*
X146835554Y-89643066D01*
X146816612Y-89658612D01*
X146801066Y-89677554D01*
X146789515Y-89699165D01*
X146782402Y-89722614D01*
X146780000Y-89747000D01*
X146780000Y-90017000D01*
X143380000Y-90017000D01*
X143380000Y-89747000D01*
X143377598Y-89722614D01*
X143370485Y-89699165D01*
X143358934Y-89677554D01*
X143343388Y-89658612D01*
X143324446Y-89643066D01*
X143302835Y-89631515D01*
X143279386Y-89624402D01*
X143255000Y-89622000D01*
X141985000Y-89622000D01*
X141985000Y-87772000D01*
X142755000Y-87772000D01*
X142779386Y-87769598D01*
X142802835Y-87762485D01*
X142824446Y-87750934D01*
X142835331Y-87742000D01*
X143535000Y-87742000D01*
X143535000Y-88092000D01*
X143537402Y-88116386D01*
X143544515Y-88139835D01*
X143556066Y-88161446D01*
X143571612Y-88180388D01*
X143590554Y-88195934D01*
X143612165Y-88207485D01*
X143635614Y-88214598D01*
X143660000Y-88217000D01*
X146500000Y-88217000D01*
X146524386Y-88214598D01*
X146547835Y-88207485D01*
X146569446Y-88195934D01*
X146588388Y-88180388D01*
X146603934Y-88161446D01*
X146615485Y-88139835D01*
X146622598Y-88116386D01*
X146625000Y-88092000D01*
X146625000Y-87742000D01*
X146622598Y-87717614D01*
X146615485Y-87694165D01*
X146603934Y-87672554D01*
X146588388Y-87653612D01*
X146569446Y-87638066D01*
X146547835Y-87626515D01*
X146524386Y-87619402D01*
X146500000Y-87617000D01*
X143660000Y-87617000D01*
X143635614Y-87619402D01*
X143612165Y-87626515D01*
X143590554Y-87638066D01*
X143571612Y-87653612D01*
X143556066Y-87672554D01*
X143544515Y-87694165D01*
X143537402Y-87717614D01*
X143535000Y-87742000D01*
X142835331Y-87742000D01*
X142843388Y-87735388D01*
X142858934Y-87716446D01*
X142870485Y-87694835D01*
X142877598Y-87671386D01*
X142880000Y-87647000D01*
X142880000Y-85317000D01*
X147280000Y-85317000D01*
X147280000Y-87647000D01*
X147280000Y-87647000D01*
G37*
G36*
X148797124Y-85327491D02*
X148888233Y-85355128D01*
X148933788Y-85368947D01*
X149059737Y-85436269D01*
X149170132Y-85526868D01*
X149260731Y-85637262D01*
X149328053Y-85763211D01*
X149341872Y-85808766D01*
X149369509Y-85899875D01*
X149380000Y-86006393D01*
X149380000Y-86927607D01*
X149369509Y-87034125D01*
X149341872Y-87125234D01*
X149328053Y-87170789D01*
X149260731Y-87296738D01*
X149170132Y-87407132D01*
X149059738Y-87497731D01*
X148933789Y-87565053D01*
X148888234Y-87578872D01*
X148797125Y-87606509D01*
X148702375Y-87615841D01*
X148655001Y-87620507D01*
X148655000Y-87620507D01*
X148512876Y-87606509D01*
X148376213Y-87565053D01*
X148358924Y-87555812D01*
X148336374Y-87546470D01*
X148323281Y-87536760D01*
X148250263Y-87497731D01*
X148139869Y-87407132D01*
X148049270Y-87296738D01*
X147981948Y-87170789D01*
X147968129Y-87125234D01*
X147940492Y-87034125D01*
X147930000Y-86927607D01*
X147930000Y-86006394D01*
X147940491Y-85899876D01*
X147981947Y-85763213D01*
X147981947Y-85763212D01*
X148049269Y-85637263D01*
X148139868Y-85526868D01*
X148250262Y-85436269D01*
X148376211Y-85368947D01*
X148421766Y-85355128D01*
X148512875Y-85327491D01*
X148607625Y-85318159D01*
X148654999Y-85313493D01*
X148655000Y-85313493D01*
X148797124Y-85327491D01*
X148797124Y-85327491D01*
G37*
G36*
X141552375Y-85318159D02*
X141647125Y-85327491D01*
X141738234Y-85355128D01*
X141783789Y-85368947D01*
X141909738Y-85436269D01*
X142020132Y-85526868D01*
X142110731Y-85637262D01*
X142178053Y-85763211D01*
X142191872Y-85808766D01*
X142219509Y-85899875D01*
X142230000Y-86006393D01*
X142230000Y-86927607D01*
X142219509Y-87034125D01*
X142191872Y-87125234D01*
X142178053Y-87170789D01*
X142110731Y-87296738D01*
X142020132Y-87407132D01*
X141909737Y-87497731D01*
X141836719Y-87536760D01*
X141819290Y-87548406D01*
X141812165Y-87550567D01*
X141801078Y-87555811D01*
X141783787Y-87565053D01*
X141647124Y-87606509D01*
X141505000Y-87620507D01*
X141504999Y-87620507D01*
X141457625Y-87615841D01*
X141362875Y-87606509D01*
X141271766Y-87578872D01*
X141226211Y-87565053D01*
X141100262Y-87497731D01*
X140989868Y-87407132D01*
X140899269Y-87296737D01*
X140831947Y-87170788D01*
X140818128Y-87125233D01*
X140790491Y-87034124D01*
X140780000Y-86927606D01*
X140780000Y-86006393D01*
X140790492Y-85899875D01*
X140818129Y-85808766D01*
X140831948Y-85763211D01*
X140899270Y-85637262D01*
X140989869Y-85526868D01*
X141100263Y-85436269D01*
X141226212Y-85368947D01*
X141271767Y-85355128D01*
X141362876Y-85327491D01*
X141505000Y-85313493D01*
X141505001Y-85313493D01*
X141552375Y-85318159D01*
X141552375Y-85318159D01*
G37*
M02*
