G04 #@! TF.GenerationSoftware,KiCad,Pcbnew,5.0.2-bee76a0~70~ubuntu16.04.1*
G04 #@! TF.CreationDate,2018-12-16T16:52:19+05:30*
G04 #@! TF.ProjectId,voltage_6V,766f6c74-6167-4655-9f36-562e6b696361,rev?*
G04 #@! TF.SameCoordinates,Original*
G04 #@! TF.FileFunction,Legend,Top*
G04 #@! TF.FilePolarity,Positive*
%FSLAX46Y46*%
G04 Gerber Fmt 4.6, Leading zero omitted, Abs format (unit mm)*
G04 Created by KiCad (PCBNEW 5.0.2-bee76a0~70~ubuntu16.04.1) date Sun Dec 16 16:52:19 2018*
%MOMM*%
%LPD*%
G01*
G04 APERTURE LIST*
%ADD10C,0.300000*%
%ADD11C,0.250000*%
%ADD12C,0.150000*%
%ADD13C,0.120000*%
%ADD14C,0.125000*%
G04 APERTURE END LIST*
D10*
X156928571Y-89107142D02*
X158071428Y-89107142D01*
X156928571Y-91607142D02*
X158071428Y-91607142D01*
X157500000Y-92178571D02*
X157500000Y-91035714D01*
D11*
X141952380Y-98747428D02*
X141285714Y-98747428D01*
X141380952Y-98747428D02*
X141333333Y-98699809D01*
X141285714Y-98604571D01*
X141285714Y-98461714D01*
X141333333Y-98366476D01*
X141428571Y-98318857D01*
X141952380Y-98318857D01*
X141428571Y-98318857D02*
X141333333Y-98271238D01*
X141285714Y-98176000D01*
X141285714Y-98033142D01*
X141333333Y-97937904D01*
X141428571Y-97890285D01*
X141952380Y-97890285D01*
X141952380Y-96985523D02*
X141428571Y-96985523D01*
X141333333Y-97033142D01*
X141285714Y-97128380D01*
X141285714Y-97318857D01*
X141333333Y-97414095D01*
X141904761Y-96985523D02*
X141952380Y-97080761D01*
X141952380Y-97318857D01*
X141904761Y-97414095D01*
X141809523Y-97461714D01*
X141714285Y-97461714D01*
X141619047Y-97414095D01*
X141571428Y-97318857D01*
X141571428Y-97080761D01*
X141523809Y-96985523D01*
X141952380Y-96604571D02*
X141285714Y-96080761D01*
X141285714Y-96604571D02*
X141952380Y-96080761D01*
X140952380Y-94509333D02*
X140952380Y-94699809D01*
X141000000Y-94795047D01*
X141047619Y-94842666D01*
X141190476Y-94937904D01*
X141380952Y-94985523D01*
X141761904Y-94985523D01*
X141857142Y-94937904D01*
X141904761Y-94890285D01*
X141952380Y-94795047D01*
X141952380Y-94604571D01*
X141904761Y-94509333D01*
X141857142Y-94461714D01*
X141761904Y-94414095D01*
X141523809Y-94414095D01*
X141428571Y-94461714D01*
X141380952Y-94509333D01*
X141333333Y-94604571D01*
X141333333Y-94795047D01*
X141380952Y-94890285D01*
X141428571Y-94937904D01*
X141523809Y-94985523D01*
X140952380Y-94128380D02*
X141952380Y-93795047D01*
X140952380Y-93461714D01*
X144678571Y-102952380D02*
X145011904Y-103952380D01*
X145345238Y-102952380D01*
X145821428Y-103952380D02*
X145726190Y-103904761D01*
X145678571Y-103857142D01*
X145630952Y-103761904D01*
X145630952Y-103476190D01*
X145678571Y-103380952D01*
X145726190Y-103333333D01*
X145821428Y-103285714D01*
X145964285Y-103285714D01*
X146059523Y-103333333D01*
X146107142Y-103380952D01*
X146154761Y-103476190D01*
X146154761Y-103761904D01*
X146107142Y-103857142D01*
X146059523Y-103904761D01*
X145964285Y-103952380D01*
X145821428Y-103952380D01*
X146726190Y-103952380D02*
X146630952Y-103904761D01*
X146583333Y-103809523D01*
X146583333Y-102952380D01*
X146964285Y-103285714D02*
X147345238Y-103285714D01*
X147107142Y-102952380D02*
X147107142Y-103809523D01*
X147154761Y-103904761D01*
X147250000Y-103952380D01*
X147345238Y-103952380D01*
X148107142Y-103952380D02*
X148107142Y-103428571D01*
X148059523Y-103333333D01*
X147964285Y-103285714D01*
X147773809Y-103285714D01*
X147678571Y-103333333D01*
X148107142Y-103904761D02*
X148011904Y-103952380D01*
X147773809Y-103952380D01*
X147678571Y-103904761D01*
X147630952Y-103809523D01*
X147630952Y-103714285D01*
X147678571Y-103619047D01*
X147773809Y-103571428D01*
X148011904Y-103571428D01*
X148107142Y-103523809D01*
X149011904Y-103285714D02*
X149011904Y-104095238D01*
X148964285Y-104190476D01*
X148916666Y-104238095D01*
X148821428Y-104285714D01*
X148678571Y-104285714D01*
X148583333Y-104238095D01*
X149011904Y-103904761D02*
X148916666Y-103952380D01*
X148726190Y-103952380D01*
X148630952Y-103904761D01*
X148583333Y-103857142D01*
X148535714Y-103761904D01*
X148535714Y-103476190D01*
X148583333Y-103380952D01*
X148630952Y-103333333D01*
X148726190Y-103285714D01*
X148916666Y-103285714D01*
X149011904Y-103333333D01*
X149869047Y-103904761D02*
X149773809Y-103952380D01*
X149583333Y-103952380D01*
X149488095Y-103904761D01*
X149440476Y-103809523D01*
X149440476Y-103428571D01*
X149488095Y-103333333D01*
X149583333Y-103285714D01*
X149773809Y-103285714D01*
X149869047Y-103333333D01*
X149916666Y-103428571D01*
X149916666Y-103523809D01*
X149440476Y-103619047D01*
X151059523Y-103904761D02*
X151202380Y-103952380D01*
X151440476Y-103952380D01*
X151535714Y-103904761D01*
X151583333Y-103857142D01*
X151630952Y-103761904D01*
X151630952Y-103666666D01*
X151583333Y-103571428D01*
X151535714Y-103523809D01*
X151440476Y-103476190D01*
X151250000Y-103428571D01*
X151154761Y-103380952D01*
X151107142Y-103333333D01*
X151059523Y-103238095D01*
X151059523Y-103142857D01*
X151107142Y-103047619D01*
X151154761Y-103000000D01*
X151250000Y-102952380D01*
X151488095Y-102952380D01*
X151630952Y-103000000D01*
X152440476Y-103904761D02*
X152345238Y-103952380D01*
X152154761Y-103952380D01*
X152059523Y-103904761D01*
X152011904Y-103809523D01*
X152011904Y-103428571D01*
X152059523Y-103333333D01*
X152154761Y-103285714D01*
X152345238Y-103285714D01*
X152440476Y-103333333D01*
X152488095Y-103428571D01*
X152488095Y-103523809D01*
X152011904Y-103619047D01*
X152916666Y-103285714D02*
X152916666Y-103952380D01*
X152916666Y-103380952D02*
X152964285Y-103333333D01*
X153059523Y-103285714D01*
X153202380Y-103285714D01*
X153297619Y-103333333D01*
X153345238Y-103428571D01*
X153345238Y-103952380D01*
X153773809Y-103904761D02*
X153869047Y-103952380D01*
X154059523Y-103952380D01*
X154154761Y-103904761D01*
X154202380Y-103809523D01*
X154202380Y-103761904D01*
X154154761Y-103666666D01*
X154059523Y-103619047D01*
X153916666Y-103619047D01*
X153821428Y-103571428D01*
X153773809Y-103476190D01*
X153773809Y-103428571D01*
X153821428Y-103333333D01*
X153916666Y-103285714D01*
X154059523Y-103285714D01*
X154154761Y-103333333D01*
X154773809Y-103952380D02*
X154678571Y-103904761D01*
X154630952Y-103857142D01*
X154583333Y-103761904D01*
X154583333Y-103476190D01*
X154630952Y-103380952D01*
X154678571Y-103333333D01*
X154773809Y-103285714D01*
X154916666Y-103285714D01*
X155011904Y-103333333D01*
X155059523Y-103380952D01*
X155107142Y-103476190D01*
X155107142Y-103761904D01*
X155059523Y-103857142D01*
X155011904Y-103904761D01*
X154916666Y-103952380D01*
X154773809Y-103952380D01*
X155535714Y-103952380D02*
X155535714Y-103285714D01*
X155535714Y-103476190D02*
X155583333Y-103380952D01*
X155630952Y-103333333D01*
X155726190Y-103285714D01*
X155821428Y-103285714D01*
D12*
G04 #@! TO.C,U1*
X151626000Y-98134000D02*
X152701000Y-98134000D01*
X151626000Y-95059000D02*
X148376000Y-95059000D01*
X151626000Y-98309000D02*
X148376000Y-98309000D01*
X151626000Y-95059000D02*
X151626000Y-95334000D01*
X148376000Y-95059000D02*
X148376000Y-95334000D01*
X148376000Y-98309000D02*
X148376000Y-98034000D01*
X151626000Y-98309000D02*
X151626000Y-98134000D01*
D13*
G04 #@! TO.C,J3*
X148890000Y-89377000D02*
X148230000Y-89377000D01*
X148890000Y-87647000D02*
X148890000Y-89377000D01*
X141270000Y-85077000D02*
X141270000Y-85287000D01*
X148890000Y-85077000D02*
X148890000Y-85287000D01*
X141270000Y-87647000D02*
X141270000Y-89377000D01*
X141270000Y-89377000D02*
X141920000Y-89377000D01*
X146840000Y-90077000D02*
X146390000Y-90077000D01*
X146840000Y-90077000D02*
X146840000Y-89687000D01*
G04 #@! TO.C,J1*
X155808000Y-87734000D02*
X153148000Y-87734000D01*
X155808000Y-90334000D02*
X155808000Y-87734000D01*
X153148000Y-90334000D02*
X153148000Y-87734000D01*
X155808000Y-90334000D02*
X153148000Y-90334000D01*
X155808000Y-91604000D02*
X155808000Y-92934000D01*
X155808000Y-92934000D02*
X154478000Y-92934000D01*
G04 #@! TO.C,R2*
D14*
X156015555Y-99062055D02*
X155848889Y-98823960D01*
X155729841Y-99062055D02*
X155729841Y-98562055D01*
X155920317Y-98562055D01*
X155967936Y-98585865D01*
X155991746Y-98609674D01*
X156015555Y-98657293D01*
X156015555Y-98728722D01*
X155991746Y-98776341D01*
X155967936Y-98800150D01*
X155920317Y-98823960D01*
X155729841Y-98823960D01*
X156206031Y-98609674D02*
X156229841Y-98585865D01*
X156277460Y-98562055D01*
X156396508Y-98562055D01*
X156444127Y-98585865D01*
X156467936Y-98609674D01*
X156491746Y-98657293D01*
X156491746Y-98704912D01*
X156467936Y-98776341D01*
X156182222Y-99062055D01*
X156491746Y-99062055D01*
G04 #@! TO.C,R6*
X156015555Y-97037190D02*
X155848889Y-96799095D01*
X155729841Y-97037190D02*
X155729841Y-96537190D01*
X155920317Y-96537190D01*
X155967936Y-96561000D01*
X155991746Y-96584809D01*
X156015555Y-96632428D01*
X156015555Y-96703857D01*
X155991746Y-96751476D01*
X155967936Y-96775285D01*
X155920317Y-96799095D01*
X155729841Y-96799095D01*
X156444127Y-96537190D02*
X156348889Y-96537190D01*
X156301269Y-96561000D01*
X156277460Y-96584809D01*
X156229841Y-96656238D01*
X156206031Y-96751476D01*
X156206031Y-96941952D01*
X156229841Y-96989571D01*
X156253650Y-97013380D01*
X156301269Y-97037190D01*
X156396508Y-97037190D01*
X156444127Y-97013380D01*
X156467936Y-96989571D01*
X156491746Y-96941952D01*
X156491746Y-96822904D01*
X156467936Y-96775285D01*
X156444127Y-96751476D01*
X156396508Y-96727666D01*
X156301269Y-96727666D01*
X156253650Y-96751476D01*
X156229841Y-96775285D01*
X156206031Y-96822904D01*
G04 #@! TO.C,R5*
X156038555Y-98053190D02*
X155871889Y-97815095D01*
X155752841Y-98053190D02*
X155752841Y-97553190D01*
X155943317Y-97553190D01*
X155990936Y-97577000D01*
X156014746Y-97600809D01*
X156038555Y-97648428D01*
X156038555Y-97719857D01*
X156014746Y-97767476D01*
X155990936Y-97791285D01*
X155943317Y-97815095D01*
X155752841Y-97815095D01*
X156490936Y-97553190D02*
X156252841Y-97553190D01*
X156229031Y-97791285D01*
X156252841Y-97767476D01*
X156300460Y-97743666D01*
X156419508Y-97743666D01*
X156467127Y-97767476D01*
X156490936Y-97791285D01*
X156514746Y-97838904D01*
X156514746Y-97957952D01*
X156490936Y-98005571D01*
X156467127Y-98029380D01*
X156419508Y-98053190D01*
X156300460Y-98053190D01*
X156252841Y-98029380D01*
X156229031Y-98005571D01*
G04 #@! TO.C,U1*
X149620047Y-98696190D02*
X149620047Y-99100952D01*
X149643857Y-99148571D01*
X149667666Y-99172380D01*
X149715285Y-99196190D01*
X149810523Y-99196190D01*
X149858142Y-99172380D01*
X149881952Y-99148571D01*
X149905761Y-99100952D01*
X149905761Y-98696190D01*
X150405761Y-99196190D02*
X150120047Y-99196190D01*
X150262904Y-99196190D02*
X150262904Y-98696190D01*
X150215285Y-98767619D01*
X150167666Y-98815238D01*
X150120047Y-98839047D01*
G04 #@! TO.C,R1*
X150933666Y-91665190D02*
X150767000Y-91427095D01*
X150647952Y-91665190D02*
X150647952Y-91165190D01*
X150838428Y-91165190D01*
X150886047Y-91189000D01*
X150909857Y-91212809D01*
X150933666Y-91260428D01*
X150933666Y-91331857D01*
X150909857Y-91379476D01*
X150886047Y-91403285D01*
X150838428Y-91427095D01*
X150647952Y-91427095D01*
X151409857Y-91665190D02*
X151124142Y-91665190D01*
X151267000Y-91665190D02*
X151267000Y-91165190D01*
X151219380Y-91236619D01*
X151171761Y-91284238D01*
X151124142Y-91308047D01*
G04 #@! TO.C,R3*
X149917666Y-91665190D02*
X149751000Y-91427095D01*
X149631952Y-91665190D02*
X149631952Y-91165190D01*
X149822428Y-91165190D01*
X149870047Y-91189000D01*
X149893857Y-91212809D01*
X149917666Y-91260428D01*
X149917666Y-91331857D01*
X149893857Y-91379476D01*
X149870047Y-91403285D01*
X149822428Y-91427095D01*
X149631952Y-91427095D01*
X150084333Y-91165190D02*
X150393857Y-91165190D01*
X150227190Y-91355666D01*
X150298619Y-91355666D01*
X150346238Y-91379476D01*
X150370047Y-91403285D01*
X150393857Y-91450904D01*
X150393857Y-91569952D01*
X150370047Y-91617571D01*
X150346238Y-91641380D01*
X150298619Y-91665190D01*
X150155761Y-91665190D01*
X150108142Y-91641380D01*
X150084333Y-91617571D01*
G04 #@! TO.C,R4*
X148901666Y-91665190D02*
X148735000Y-91427095D01*
X148615952Y-91665190D02*
X148615952Y-91165190D01*
X148806428Y-91165190D01*
X148854047Y-91189000D01*
X148877857Y-91212809D01*
X148901666Y-91260428D01*
X148901666Y-91331857D01*
X148877857Y-91379476D01*
X148854047Y-91403285D01*
X148806428Y-91427095D01*
X148615952Y-91427095D01*
X149330238Y-91331857D02*
X149330238Y-91665190D01*
X149211190Y-91141380D02*
X149092142Y-91498523D01*
X149401666Y-91498523D01*
G04 #@! TO.C,C1*
X147885666Y-91617571D02*
X147861857Y-91641380D01*
X147790428Y-91665190D01*
X147742809Y-91665190D01*
X147671380Y-91641380D01*
X147623761Y-91593761D01*
X147599952Y-91546142D01*
X147576142Y-91450904D01*
X147576142Y-91379476D01*
X147599952Y-91284238D01*
X147623761Y-91236619D01*
X147671380Y-91189000D01*
X147742809Y-91165190D01*
X147790428Y-91165190D01*
X147861857Y-91189000D01*
X147885666Y-91212809D01*
X148361857Y-91665190D02*
X148076142Y-91665190D01*
X148219000Y-91665190D02*
X148219000Y-91165190D01*
X148171380Y-91236619D01*
X148123761Y-91284238D01*
X148076142Y-91308047D01*
G04 #@! TO.C,R7*
X144329666Y-97799190D02*
X144163000Y-97561095D01*
X144043952Y-97799190D02*
X144043952Y-97299190D01*
X144234428Y-97299190D01*
X144282047Y-97323000D01*
X144305857Y-97346809D01*
X144329666Y-97394428D01*
X144329666Y-97465857D01*
X144305857Y-97513476D01*
X144282047Y-97537285D01*
X144234428Y-97561095D01*
X144043952Y-97561095D01*
X144496333Y-97299190D02*
X144829666Y-97299190D01*
X144615380Y-97799190D01*
G04 #@! TO.C,R8*
X144329666Y-100085190D02*
X144163000Y-99847095D01*
X144043952Y-100085190D02*
X144043952Y-99585190D01*
X144234428Y-99585190D01*
X144282047Y-99609000D01*
X144305857Y-99632809D01*
X144329666Y-99680428D01*
X144329666Y-99751857D01*
X144305857Y-99799476D01*
X144282047Y-99823285D01*
X144234428Y-99847095D01*
X144043952Y-99847095D01*
X144615380Y-99799476D02*
X144567761Y-99775666D01*
X144543952Y-99751857D01*
X144520142Y-99704238D01*
X144520142Y-99680428D01*
X144543952Y-99632809D01*
X144567761Y-99609000D01*
X144615380Y-99585190D01*
X144710619Y-99585190D01*
X144758238Y-99609000D01*
X144782047Y-99632809D01*
X144805857Y-99680428D01*
X144805857Y-99704238D01*
X144782047Y-99751857D01*
X144758238Y-99775666D01*
X144710619Y-99799476D01*
X144615380Y-99799476D01*
X144567761Y-99823285D01*
X144543952Y-99847095D01*
X144520142Y-99894714D01*
X144520142Y-99989952D01*
X144543952Y-100037571D01*
X144567761Y-100061380D01*
X144615380Y-100085190D01*
X144710619Y-100085190D01*
X144758238Y-100061380D01*
X144782047Y-100037571D01*
X144805857Y-99989952D01*
X144805857Y-99894714D01*
X144782047Y-99847095D01*
X144758238Y-99823285D01*
X144710619Y-99799476D01*
G04 #@! TO.C,J3*
X149358333Y-88536190D02*
X149358333Y-88893333D01*
X149334523Y-88964761D01*
X149286904Y-89012380D01*
X149215476Y-89036190D01*
X149167857Y-89036190D01*
X149548809Y-88536190D02*
X149858333Y-88536190D01*
X149691666Y-88726666D01*
X149763095Y-88726666D01*
X149810714Y-88750476D01*
X149834523Y-88774285D01*
X149858333Y-88821904D01*
X149858333Y-88940952D01*
X149834523Y-88988571D01*
X149810714Y-89012380D01*
X149763095Y-89036190D01*
X149620238Y-89036190D01*
X149572619Y-89012380D01*
X149548809Y-88988571D01*
G04 #@! TO.C,J1*
X152406333Y-90060190D02*
X152406333Y-90417333D01*
X152382523Y-90488761D01*
X152334904Y-90536380D01*
X152263476Y-90560190D01*
X152215857Y-90560190D01*
X152906333Y-90560190D02*
X152620619Y-90560190D01*
X152763476Y-90560190D02*
X152763476Y-90060190D01*
X152715857Y-90131619D01*
X152668238Y-90179238D01*
X152620619Y-90203047D01*
D12*
X156266666Y-89752380D02*
X156266666Y-90466666D01*
X156219047Y-90609523D01*
X156123809Y-90704761D01*
X155980952Y-90752380D01*
X155885714Y-90752380D01*
X157266666Y-90752380D02*
X156695238Y-90752380D01*
X156980952Y-90752380D02*
X156980952Y-89752380D01*
X156885714Y-89895238D01*
X156790476Y-89990476D01*
X156695238Y-90038095D01*
G04 #@! TD*
M02*
