G04 #@! TF.GenerationSoftware,KiCad,Pcbnew,5.0.2-bee76a0~70~ubuntu16.04.1*
G04 #@! TF.CreationDate,2018-12-16T16:52:19+05:30*
G04 #@! TF.ProjectId,voltage_6V,766f6c74-6167-4655-9f36-562e6b696361,rev?*
G04 #@! TF.SameCoordinates,Original*
G04 #@! TF.FileFunction,Soldermask,Bot*
G04 #@! TF.FilePolarity,Negative*
%FSLAX46Y46*%
G04 Gerber Fmt 4.6, Leading zero omitted, Abs format (unit mm)*
G04 Created by KiCad (PCBNEW 5.0.2-bee76a0~70~ubuntu16.04.1) date Sun Dec 16 16:52:19 2018*
%MOMM*%
%LPD*%
G01*
G04 APERTURE LIST*
%ADD10C,0.100000*%
G04 APERTURE END LIST*
D10*
G36*
X158379196Y-101749958D02*
X158615780Y-101847954D01*
X158828705Y-101990226D01*
X159009774Y-102171295D01*
X159152046Y-102384220D01*
X159250042Y-102620804D01*
X159300000Y-102871960D01*
X159300000Y-103128040D01*
X159250042Y-103379196D01*
X159152046Y-103615780D01*
X159009774Y-103828705D01*
X158828705Y-104009774D01*
X158615780Y-104152046D01*
X158379196Y-104250042D01*
X158128040Y-104300000D01*
X157871960Y-104300000D01*
X157620804Y-104250042D01*
X157384220Y-104152046D01*
X157171295Y-104009774D01*
X156990226Y-103828705D01*
X156847954Y-103615780D01*
X156749958Y-103379196D01*
X156700000Y-103128040D01*
X156700000Y-102871960D01*
X156749958Y-102620804D01*
X156847954Y-102384220D01*
X156990226Y-102171295D01*
X157171295Y-101990226D01*
X157384220Y-101847954D01*
X157620804Y-101749958D01*
X157871960Y-101700000D01*
X158128040Y-101700000D01*
X158379196Y-101749958D01*
X158379196Y-101749958D01*
G37*
G36*
X142879196Y-101749958D02*
X143115780Y-101847954D01*
X143328705Y-101990226D01*
X143509774Y-102171295D01*
X143652046Y-102384220D01*
X143750042Y-102620804D01*
X143800000Y-102871960D01*
X143800000Y-103128040D01*
X143750042Y-103379196D01*
X143652046Y-103615780D01*
X143509774Y-103828705D01*
X143328705Y-104009774D01*
X143115780Y-104152046D01*
X142879196Y-104250042D01*
X142628040Y-104300000D01*
X142371960Y-104300000D01*
X142120804Y-104250042D01*
X141884220Y-104152046D01*
X141671295Y-104009774D01*
X141490226Y-103828705D01*
X141347954Y-103615780D01*
X141249958Y-103379196D01*
X141200000Y-103128040D01*
X141200000Y-102871960D01*
X141249958Y-102620804D01*
X141347954Y-102384220D01*
X141490226Y-102171295D01*
X141671295Y-101990226D01*
X141884220Y-101847954D01*
X142120804Y-101749958D01*
X142371960Y-101700000D01*
X142628040Y-101700000D01*
X142879196Y-101749958D01*
X142879196Y-101749958D01*
G37*
G36*
X155528000Y-92654000D02*
X153428000Y-92654000D01*
X153428000Y-90554000D01*
X155528000Y-90554000D01*
X155528000Y-92654000D01*
X155528000Y-92654000D01*
G37*
G36*
X154606707Y-88021597D02*
X154683836Y-88029193D01*
X154815787Y-88069220D01*
X154881763Y-88089233D01*
X155064172Y-88186733D01*
X155224054Y-88317946D01*
X155355267Y-88477828D01*
X155452767Y-88660237D01*
X155452767Y-88660238D01*
X155512807Y-88858164D01*
X155533080Y-89064000D01*
X155512807Y-89269836D01*
X155472780Y-89401787D01*
X155452767Y-89467763D01*
X155355267Y-89650172D01*
X155224054Y-89810054D01*
X155064172Y-89941267D01*
X154881763Y-90038767D01*
X154815787Y-90058780D01*
X154683836Y-90098807D01*
X154606707Y-90106404D01*
X154529580Y-90114000D01*
X154426420Y-90114000D01*
X154349293Y-90106404D01*
X154272164Y-90098807D01*
X154140213Y-90058780D01*
X154074237Y-90038767D01*
X153891828Y-89941267D01*
X153731946Y-89810054D01*
X153600733Y-89650172D01*
X153503233Y-89467763D01*
X153483220Y-89401787D01*
X153443193Y-89269836D01*
X153422920Y-89064000D01*
X153443193Y-88858164D01*
X153503233Y-88660238D01*
X153503233Y-88660237D01*
X153600733Y-88477828D01*
X153731946Y-88317946D01*
X153891828Y-88186733D01*
X154074237Y-88089233D01*
X154140213Y-88069220D01*
X154272164Y-88029193D01*
X154349293Y-88021597D01*
X154426420Y-88014000D01*
X154529580Y-88014000D01*
X154606707Y-88021597D01*
X154606707Y-88021597D01*
G37*
G36*
X141552375Y-85318159D02*
X141647125Y-85327491D01*
X141738234Y-85355128D01*
X141783789Y-85368947D01*
X141909738Y-85436269D01*
X142020132Y-85526868D01*
X142110731Y-85637262D01*
X142178053Y-85763211D01*
X142191872Y-85808766D01*
X142219509Y-85899875D01*
X142230000Y-86006393D01*
X142230000Y-86927607D01*
X142219509Y-87034125D01*
X142191872Y-87125234D01*
X142178053Y-87170789D01*
X142110731Y-87296738D01*
X142020132Y-87407132D01*
X141909737Y-87497731D01*
X141783788Y-87565053D01*
X141738233Y-87578872D01*
X141647124Y-87606509D01*
X141505000Y-87620507D01*
X141504999Y-87620507D01*
X141457625Y-87615841D01*
X141362875Y-87606509D01*
X141271766Y-87578872D01*
X141226211Y-87565053D01*
X141100262Y-87497731D01*
X140989868Y-87407132D01*
X140899269Y-87296737D01*
X140831947Y-87170788D01*
X140818128Y-87125233D01*
X140790491Y-87034124D01*
X140780000Y-86927606D01*
X140780000Y-86006393D01*
X140790492Y-85899875D01*
X140818129Y-85808766D01*
X140831948Y-85763211D01*
X140899270Y-85637262D01*
X140989869Y-85526868D01*
X141100263Y-85436269D01*
X141226212Y-85368947D01*
X141271767Y-85355128D01*
X141362876Y-85327491D01*
X141505000Y-85313493D01*
X141505001Y-85313493D01*
X141552375Y-85318159D01*
X141552375Y-85318159D01*
G37*
G36*
X148797124Y-85327491D02*
X148888233Y-85355128D01*
X148933788Y-85368947D01*
X149059737Y-85436269D01*
X149170132Y-85526868D01*
X149260731Y-85637262D01*
X149328053Y-85763211D01*
X149341872Y-85808766D01*
X149369509Y-85899875D01*
X149380000Y-86006393D01*
X149380000Y-86927607D01*
X149369509Y-87034125D01*
X149341872Y-87125234D01*
X149328053Y-87170789D01*
X149260731Y-87296738D01*
X149170132Y-87407132D01*
X149059738Y-87497731D01*
X148933789Y-87565053D01*
X148888234Y-87578872D01*
X148797125Y-87606509D01*
X148702375Y-87615841D01*
X148655001Y-87620507D01*
X148655000Y-87620507D01*
X148512876Y-87606509D01*
X148421767Y-87578872D01*
X148376212Y-87565053D01*
X148250263Y-87497731D01*
X148139869Y-87407132D01*
X148049270Y-87296738D01*
X147981948Y-87170789D01*
X147968129Y-87125234D01*
X147940492Y-87034125D01*
X147930000Y-86927607D01*
X147930000Y-86006394D01*
X147940491Y-85899876D01*
X147981947Y-85763213D01*
X147981947Y-85763212D01*
X148049269Y-85637263D01*
X148139868Y-85526868D01*
X148250262Y-85436269D01*
X148376211Y-85368947D01*
X148421766Y-85355128D01*
X148512875Y-85327491D01*
X148607625Y-85318159D01*
X148654999Y-85313493D01*
X148655000Y-85313493D01*
X148797124Y-85327491D01*
X148797124Y-85327491D01*
G37*
M02*
