G04 #@! TF.GenerationSoftware,KiCad,Pcbnew,5.0.2-bee76a0~70~ubuntu16.04.1*
G04 #@! TF.CreationDate,2018-12-16T16:52:19+05:30*
G04 #@! TF.ProjectId,voltage_6V,766f6c74-6167-4655-9f36-562e6b696361,rev?*
G04 #@! TF.SameCoordinates,Original*
G04 #@! TF.FileFunction,Copper,L2,Bot*
G04 #@! TF.FilePolarity,Positive*
%FSLAX46Y46*%
G04 Gerber Fmt 4.6, Leading zero omitted, Abs format (unit mm)*
G04 Created by KiCad (PCBNEW 5.0.2-bee76a0~70~ubuntu16.04.1) date Sun Dec 16 16:52:19 2018*
%MOMM*%
%LPD*%
G01*
G04 APERTURE LIST*
G04 #@! TA.AperFunction,ComponentPad*
%ADD10O,1.050000X1.900000*%
G04 #@! TD*
G04 #@! TA.AperFunction,ComponentPad*
%ADD11R,1.700000X1.700000*%
G04 #@! TD*
G04 #@! TA.AperFunction,ComponentPad*
%ADD12O,1.700000X1.700000*%
G04 #@! TD*
G04 #@! TA.AperFunction,ViaPad*
%ADD13C,0.800000*%
G04 #@! TD*
G04 #@! TA.AperFunction,Conductor*
%ADD14C,0.254000*%
G04 #@! TD*
G04 APERTURE END LIST*
D10*
G04 #@! TO.P,J3,6*
G04 #@! TO.N,GND*
X148655000Y-86467000D03*
X141505000Y-86467000D03*
G04 #@! TD*
D11*
G04 #@! TO.P,J1,1*
G04 #@! TO.N,/IN+*
X154478000Y-91604000D03*
D12*
G04 #@! TO.P,J1,2*
G04 #@! TO.N,GND*
X154478000Y-89064000D03*
G04 #@! TD*
D13*
G04 #@! TO.N,GND*
X147970000Y-92420000D03*
X148990000Y-92430000D03*
X149980000Y-92430000D03*
X146700000Y-95680000D03*
X150900000Y-96680000D03*
G04 #@! TD*
D14*
G04 #@! TO.N,GND*
G36*
X147631901Y-85480755D02*
X147495000Y-85915000D01*
X147495000Y-86340000D01*
X148528000Y-86340000D01*
X148528000Y-86320000D01*
X148782000Y-86320000D01*
X148782000Y-86340000D01*
X149815000Y-86340000D01*
X149815000Y-85915000D01*
X149678099Y-85480755D01*
X149653972Y-85452000D01*
X160048000Y-85452000D01*
X160048001Y-102971554D01*
X159980179Y-103508424D01*
X159791528Y-103984902D01*
X159674721Y-104145673D01*
X159093172Y-104727222D01*
X158631757Y-104944346D01*
X158107221Y-105044407D01*
X157992899Y-105048000D01*
X142528438Y-105048000D01*
X141991576Y-104980179D01*
X141515098Y-104791528D01*
X141354327Y-104674721D01*
X140772778Y-104093172D01*
X140555654Y-103631757D01*
X140455593Y-103107221D01*
X140452000Y-102992899D01*
X140452000Y-102706206D01*
X141023000Y-102706206D01*
X141023000Y-103293794D01*
X141247860Y-103836653D01*
X141663347Y-104252140D01*
X142206206Y-104477000D01*
X142793794Y-104477000D01*
X143336653Y-104252140D01*
X143752140Y-103836653D01*
X143977000Y-103293794D01*
X143977000Y-102706206D01*
X156523000Y-102706206D01*
X156523000Y-103293794D01*
X156747860Y-103836653D01*
X157163347Y-104252140D01*
X157706206Y-104477000D01*
X158293794Y-104477000D01*
X158836653Y-104252140D01*
X159252140Y-103836653D01*
X159477000Y-103293794D01*
X159477000Y-102706206D01*
X159252140Y-102163347D01*
X158836653Y-101747860D01*
X158293794Y-101523000D01*
X157706206Y-101523000D01*
X157163347Y-101747860D01*
X156747860Y-102163347D01*
X156523000Y-102706206D01*
X143977000Y-102706206D01*
X143752140Y-102163347D01*
X143336653Y-101747860D01*
X142793794Y-101523000D01*
X142206206Y-101523000D01*
X141663347Y-101747860D01*
X141247860Y-102163347D01*
X141023000Y-102706206D01*
X140452000Y-102706206D01*
X140452000Y-89420890D01*
X153036524Y-89420890D01*
X153206355Y-89830924D01*
X153596642Y-90259183D01*
X153831791Y-90369615D01*
X153628000Y-90369615D01*
X153480902Y-90398875D01*
X153356199Y-90482199D01*
X153272875Y-90606902D01*
X153243615Y-90754000D01*
X153243615Y-92454000D01*
X153272875Y-92601098D01*
X153356199Y-92725801D01*
X153480902Y-92809125D01*
X153628000Y-92838385D01*
X155328000Y-92838385D01*
X155475098Y-92809125D01*
X155599801Y-92725801D01*
X155683125Y-92601098D01*
X155712385Y-92454000D01*
X155712385Y-90754000D01*
X155683125Y-90606902D01*
X155599801Y-90482199D01*
X155475098Y-90398875D01*
X155328000Y-90369615D01*
X155124209Y-90369615D01*
X155359358Y-90259183D01*
X155749645Y-89830924D01*
X155919476Y-89420890D01*
X155798155Y-89191000D01*
X154605000Y-89191000D01*
X154605000Y-89211000D01*
X154351000Y-89211000D01*
X154351000Y-89191000D01*
X153157845Y-89191000D01*
X153036524Y-89420890D01*
X140452000Y-89420890D01*
X140452000Y-88707110D01*
X153036524Y-88707110D01*
X153157845Y-88937000D01*
X154351000Y-88937000D01*
X154351000Y-87743181D01*
X154605000Y-87743181D01*
X154605000Y-88937000D01*
X155798155Y-88937000D01*
X155919476Y-88707110D01*
X155749645Y-88297076D01*
X155359358Y-87868817D01*
X154834892Y-87622514D01*
X154605000Y-87743181D01*
X154351000Y-87743181D01*
X154121108Y-87622514D01*
X153596642Y-87868817D01*
X153206355Y-88297076D01*
X153036524Y-88707110D01*
X140452000Y-88707110D01*
X140452000Y-87358400D01*
X140481901Y-87453245D01*
X140774559Y-87802046D01*
X141199190Y-88010964D01*
X141378000Y-87885163D01*
X141378000Y-86594000D01*
X141632000Y-86594000D01*
X141632000Y-87885163D01*
X141810810Y-88010964D01*
X142235441Y-87802046D01*
X142528099Y-87453245D01*
X142665000Y-87019000D01*
X142665000Y-86594000D01*
X147495000Y-86594000D01*
X147495000Y-87019000D01*
X147631901Y-87453245D01*
X147924559Y-87802046D01*
X148349190Y-88010964D01*
X148528000Y-87885163D01*
X148528000Y-86594000D01*
X148782000Y-86594000D01*
X148782000Y-87885163D01*
X148960810Y-88010964D01*
X149385441Y-87802046D01*
X149678099Y-87453245D01*
X149815000Y-87019000D01*
X149815000Y-86594000D01*
X148782000Y-86594000D01*
X148528000Y-86594000D01*
X147495000Y-86594000D01*
X142665000Y-86594000D01*
X141632000Y-86594000D01*
X141378000Y-86594000D01*
X141358000Y-86594000D01*
X141358000Y-86340000D01*
X141378000Y-86340000D01*
X141378000Y-86320000D01*
X141632000Y-86320000D01*
X141632000Y-86340000D01*
X142665000Y-86340000D01*
X142665000Y-85915000D01*
X142528099Y-85480755D01*
X142503972Y-85452000D01*
X147656028Y-85452000D01*
X147631901Y-85480755D01*
X147631901Y-85480755D01*
G37*
X147631901Y-85480755D02*
X147495000Y-85915000D01*
X147495000Y-86340000D01*
X148528000Y-86340000D01*
X148528000Y-86320000D01*
X148782000Y-86320000D01*
X148782000Y-86340000D01*
X149815000Y-86340000D01*
X149815000Y-85915000D01*
X149678099Y-85480755D01*
X149653972Y-85452000D01*
X160048000Y-85452000D01*
X160048001Y-102971554D01*
X159980179Y-103508424D01*
X159791528Y-103984902D01*
X159674721Y-104145673D01*
X159093172Y-104727222D01*
X158631757Y-104944346D01*
X158107221Y-105044407D01*
X157992899Y-105048000D01*
X142528438Y-105048000D01*
X141991576Y-104980179D01*
X141515098Y-104791528D01*
X141354327Y-104674721D01*
X140772778Y-104093172D01*
X140555654Y-103631757D01*
X140455593Y-103107221D01*
X140452000Y-102992899D01*
X140452000Y-102706206D01*
X141023000Y-102706206D01*
X141023000Y-103293794D01*
X141247860Y-103836653D01*
X141663347Y-104252140D01*
X142206206Y-104477000D01*
X142793794Y-104477000D01*
X143336653Y-104252140D01*
X143752140Y-103836653D01*
X143977000Y-103293794D01*
X143977000Y-102706206D01*
X156523000Y-102706206D01*
X156523000Y-103293794D01*
X156747860Y-103836653D01*
X157163347Y-104252140D01*
X157706206Y-104477000D01*
X158293794Y-104477000D01*
X158836653Y-104252140D01*
X159252140Y-103836653D01*
X159477000Y-103293794D01*
X159477000Y-102706206D01*
X159252140Y-102163347D01*
X158836653Y-101747860D01*
X158293794Y-101523000D01*
X157706206Y-101523000D01*
X157163347Y-101747860D01*
X156747860Y-102163347D01*
X156523000Y-102706206D01*
X143977000Y-102706206D01*
X143752140Y-102163347D01*
X143336653Y-101747860D01*
X142793794Y-101523000D01*
X142206206Y-101523000D01*
X141663347Y-101747860D01*
X141247860Y-102163347D01*
X141023000Y-102706206D01*
X140452000Y-102706206D01*
X140452000Y-89420890D01*
X153036524Y-89420890D01*
X153206355Y-89830924D01*
X153596642Y-90259183D01*
X153831791Y-90369615D01*
X153628000Y-90369615D01*
X153480902Y-90398875D01*
X153356199Y-90482199D01*
X153272875Y-90606902D01*
X153243615Y-90754000D01*
X153243615Y-92454000D01*
X153272875Y-92601098D01*
X153356199Y-92725801D01*
X153480902Y-92809125D01*
X153628000Y-92838385D01*
X155328000Y-92838385D01*
X155475098Y-92809125D01*
X155599801Y-92725801D01*
X155683125Y-92601098D01*
X155712385Y-92454000D01*
X155712385Y-90754000D01*
X155683125Y-90606902D01*
X155599801Y-90482199D01*
X155475098Y-90398875D01*
X155328000Y-90369615D01*
X155124209Y-90369615D01*
X155359358Y-90259183D01*
X155749645Y-89830924D01*
X155919476Y-89420890D01*
X155798155Y-89191000D01*
X154605000Y-89191000D01*
X154605000Y-89211000D01*
X154351000Y-89211000D01*
X154351000Y-89191000D01*
X153157845Y-89191000D01*
X153036524Y-89420890D01*
X140452000Y-89420890D01*
X140452000Y-88707110D01*
X153036524Y-88707110D01*
X153157845Y-88937000D01*
X154351000Y-88937000D01*
X154351000Y-87743181D01*
X154605000Y-87743181D01*
X154605000Y-88937000D01*
X155798155Y-88937000D01*
X155919476Y-88707110D01*
X155749645Y-88297076D01*
X155359358Y-87868817D01*
X154834892Y-87622514D01*
X154605000Y-87743181D01*
X154351000Y-87743181D01*
X154121108Y-87622514D01*
X153596642Y-87868817D01*
X153206355Y-88297076D01*
X153036524Y-88707110D01*
X140452000Y-88707110D01*
X140452000Y-87358400D01*
X140481901Y-87453245D01*
X140774559Y-87802046D01*
X141199190Y-88010964D01*
X141378000Y-87885163D01*
X141378000Y-86594000D01*
X141632000Y-86594000D01*
X141632000Y-87885163D01*
X141810810Y-88010964D01*
X142235441Y-87802046D01*
X142528099Y-87453245D01*
X142665000Y-87019000D01*
X142665000Y-86594000D01*
X147495000Y-86594000D01*
X147495000Y-87019000D01*
X147631901Y-87453245D01*
X147924559Y-87802046D01*
X148349190Y-88010964D01*
X148528000Y-87885163D01*
X148528000Y-86594000D01*
X148782000Y-86594000D01*
X148782000Y-87885163D01*
X148960810Y-88010964D01*
X149385441Y-87802046D01*
X149678099Y-87453245D01*
X149815000Y-87019000D01*
X149815000Y-86594000D01*
X148782000Y-86594000D01*
X148528000Y-86594000D01*
X147495000Y-86594000D01*
X142665000Y-86594000D01*
X141632000Y-86594000D01*
X141378000Y-86594000D01*
X141358000Y-86594000D01*
X141358000Y-86340000D01*
X141378000Y-86340000D01*
X141378000Y-86320000D01*
X141632000Y-86320000D01*
X141632000Y-86340000D01*
X142665000Y-86340000D01*
X142665000Y-85915000D01*
X142528099Y-85480755D01*
X142503972Y-85452000D01*
X147656028Y-85452000D01*
X147631901Y-85480755D01*
G04 #@! TD*
M02*
