G04 #@! TF.GenerationSoftware,KiCad,Pcbnew,5.0.2-bee76a0~70~ubuntu16.04.1*
G04 #@! TF.CreationDate,2018-12-16T16:52:19+05:30*
G04 #@! TF.ProjectId,voltage_6V,766f6c74-6167-4655-9f36-562e6b696361,rev?*
G04 #@! TF.SameCoordinates,Original*
G04 #@! TF.FileFunction,Paste,Top*
G04 #@! TF.FilePolarity,Positive*
%FSLAX46Y46*%
G04 Gerber Fmt 4.6, Leading zero omitted, Abs format (unit mm)*
G04 Created by KiCad (PCBNEW 5.0.2-bee76a0~70~ubuntu16.04.1) date Sun Dec 16 16:52:19 2018*
%MOMM*%
%LPD*%
G01*
G04 APERTURE LIST*
%ADD10C,0.100000*%
%ADD11C,0.590000*%
%ADD12R,1.100000X0.250000*%
%ADD13R,1.750000X1.900000*%
%ADD14R,0.400000X1.400000*%
%ADD15R,1.150000X1.450000*%
G04 APERTURE END LIST*
D10*
G04 #@! TO.C,R2*
G36*
X154176958Y-98480710D02*
X154191276Y-98482834D01*
X154205317Y-98486351D01*
X154218946Y-98491228D01*
X154232031Y-98497417D01*
X154244447Y-98504858D01*
X154256073Y-98513481D01*
X154266798Y-98523202D01*
X154276519Y-98533927D01*
X154285142Y-98545553D01*
X154292583Y-98557969D01*
X154298772Y-98571054D01*
X154303649Y-98584683D01*
X154307166Y-98598724D01*
X154309290Y-98613042D01*
X154310000Y-98627500D01*
X154310000Y-98972500D01*
X154309290Y-98986958D01*
X154307166Y-99001276D01*
X154303649Y-99015317D01*
X154298772Y-99028946D01*
X154292583Y-99042031D01*
X154285142Y-99054447D01*
X154276519Y-99066073D01*
X154266798Y-99076798D01*
X154256073Y-99086519D01*
X154244447Y-99095142D01*
X154232031Y-99102583D01*
X154218946Y-99108772D01*
X154205317Y-99113649D01*
X154191276Y-99117166D01*
X154176958Y-99119290D01*
X154162500Y-99120000D01*
X153867500Y-99120000D01*
X153853042Y-99119290D01*
X153838724Y-99117166D01*
X153824683Y-99113649D01*
X153811054Y-99108772D01*
X153797969Y-99102583D01*
X153785553Y-99095142D01*
X153773927Y-99086519D01*
X153763202Y-99076798D01*
X153753481Y-99066073D01*
X153744858Y-99054447D01*
X153737417Y-99042031D01*
X153731228Y-99028946D01*
X153726351Y-99015317D01*
X153722834Y-99001276D01*
X153720710Y-98986958D01*
X153720000Y-98972500D01*
X153720000Y-98627500D01*
X153720710Y-98613042D01*
X153722834Y-98598724D01*
X153726351Y-98584683D01*
X153731228Y-98571054D01*
X153737417Y-98557969D01*
X153744858Y-98545553D01*
X153753481Y-98533927D01*
X153763202Y-98523202D01*
X153773927Y-98513481D01*
X153785553Y-98504858D01*
X153797969Y-98497417D01*
X153811054Y-98491228D01*
X153824683Y-98486351D01*
X153838724Y-98482834D01*
X153853042Y-98480710D01*
X153867500Y-98480000D01*
X154162500Y-98480000D01*
X154176958Y-98480710D01*
X154176958Y-98480710D01*
G37*
D11*
X154015000Y-98800000D03*
D10*
G36*
X155146958Y-98480710D02*
X155161276Y-98482834D01*
X155175317Y-98486351D01*
X155188946Y-98491228D01*
X155202031Y-98497417D01*
X155214447Y-98504858D01*
X155226073Y-98513481D01*
X155236798Y-98523202D01*
X155246519Y-98533927D01*
X155255142Y-98545553D01*
X155262583Y-98557969D01*
X155268772Y-98571054D01*
X155273649Y-98584683D01*
X155277166Y-98598724D01*
X155279290Y-98613042D01*
X155280000Y-98627500D01*
X155280000Y-98972500D01*
X155279290Y-98986958D01*
X155277166Y-99001276D01*
X155273649Y-99015317D01*
X155268772Y-99028946D01*
X155262583Y-99042031D01*
X155255142Y-99054447D01*
X155246519Y-99066073D01*
X155236798Y-99076798D01*
X155226073Y-99086519D01*
X155214447Y-99095142D01*
X155202031Y-99102583D01*
X155188946Y-99108772D01*
X155175317Y-99113649D01*
X155161276Y-99117166D01*
X155146958Y-99119290D01*
X155132500Y-99120000D01*
X154837500Y-99120000D01*
X154823042Y-99119290D01*
X154808724Y-99117166D01*
X154794683Y-99113649D01*
X154781054Y-99108772D01*
X154767969Y-99102583D01*
X154755553Y-99095142D01*
X154743927Y-99086519D01*
X154733202Y-99076798D01*
X154723481Y-99066073D01*
X154714858Y-99054447D01*
X154707417Y-99042031D01*
X154701228Y-99028946D01*
X154696351Y-99015317D01*
X154692834Y-99001276D01*
X154690710Y-98986958D01*
X154690000Y-98972500D01*
X154690000Y-98627500D01*
X154690710Y-98613042D01*
X154692834Y-98598724D01*
X154696351Y-98584683D01*
X154701228Y-98571054D01*
X154707417Y-98557969D01*
X154714858Y-98545553D01*
X154723481Y-98533927D01*
X154733202Y-98523202D01*
X154743927Y-98513481D01*
X154755553Y-98504858D01*
X154767969Y-98497417D01*
X154781054Y-98491228D01*
X154794683Y-98486351D01*
X154808724Y-98482834D01*
X154823042Y-98480710D01*
X154837500Y-98480000D01*
X155132500Y-98480000D01*
X155146958Y-98480710D01*
X155146958Y-98480710D01*
G37*
D11*
X154985000Y-98800000D03*
G04 #@! TD*
D10*
G04 #@! TO.C,R6*
G36*
X154176958Y-96455845D02*
X154191276Y-96457969D01*
X154205317Y-96461486D01*
X154218946Y-96466363D01*
X154232031Y-96472552D01*
X154244447Y-96479993D01*
X154256073Y-96488616D01*
X154266798Y-96498337D01*
X154276519Y-96509062D01*
X154285142Y-96520688D01*
X154292583Y-96533104D01*
X154298772Y-96546189D01*
X154303649Y-96559818D01*
X154307166Y-96573859D01*
X154309290Y-96588177D01*
X154310000Y-96602635D01*
X154310000Y-96947635D01*
X154309290Y-96962093D01*
X154307166Y-96976411D01*
X154303649Y-96990452D01*
X154298772Y-97004081D01*
X154292583Y-97017166D01*
X154285142Y-97029582D01*
X154276519Y-97041208D01*
X154266798Y-97051933D01*
X154256073Y-97061654D01*
X154244447Y-97070277D01*
X154232031Y-97077718D01*
X154218946Y-97083907D01*
X154205317Y-97088784D01*
X154191276Y-97092301D01*
X154176958Y-97094425D01*
X154162500Y-97095135D01*
X153867500Y-97095135D01*
X153853042Y-97094425D01*
X153838724Y-97092301D01*
X153824683Y-97088784D01*
X153811054Y-97083907D01*
X153797969Y-97077718D01*
X153785553Y-97070277D01*
X153773927Y-97061654D01*
X153763202Y-97051933D01*
X153753481Y-97041208D01*
X153744858Y-97029582D01*
X153737417Y-97017166D01*
X153731228Y-97004081D01*
X153726351Y-96990452D01*
X153722834Y-96976411D01*
X153720710Y-96962093D01*
X153720000Y-96947635D01*
X153720000Y-96602635D01*
X153720710Y-96588177D01*
X153722834Y-96573859D01*
X153726351Y-96559818D01*
X153731228Y-96546189D01*
X153737417Y-96533104D01*
X153744858Y-96520688D01*
X153753481Y-96509062D01*
X153763202Y-96498337D01*
X153773927Y-96488616D01*
X153785553Y-96479993D01*
X153797969Y-96472552D01*
X153811054Y-96466363D01*
X153824683Y-96461486D01*
X153838724Y-96457969D01*
X153853042Y-96455845D01*
X153867500Y-96455135D01*
X154162500Y-96455135D01*
X154176958Y-96455845D01*
X154176958Y-96455845D01*
G37*
D11*
X154015000Y-96775135D03*
D10*
G36*
X155146958Y-96455845D02*
X155161276Y-96457969D01*
X155175317Y-96461486D01*
X155188946Y-96466363D01*
X155202031Y-96472552D01*
X155214447Y-96479993D01*
X155226073Y-96488616D01*
X155236798Y-96498337D01*
X155246519Y-96509062D01*
X155255142Y-96520688D01*
X155262583Y-96533104D01*
X155268772Y-96546189D01*
X155273649Y-96559818D01*
X155277166Y-96573859D01*
X155279290Y-96588177D01*
X155280000Y-96602635D01*
X155280000Y-96947635D01*
X155279290Y-96962093D01*
X155277166Y-96976411D01*
X155273649Y-96990452D01*
X155268772Y-97004081D01*
X155262583Y-97017166D01*
X155255142Y-97029582D01*
X155246519Y-97041208D01*
X155236798Y-97051933D01*
X155226073Y-97061654D01*
X155214447Y-97070277D01*
X155202031Y-97077718D01*
X155188946Y-97083907D01*
X155175317Y-97088784D01*
X155161276Y-97092301D01*
X155146958Y-97094425D01*
X155132500Y-97095135D01*
X154837500Y-97095135D01*
X154823042Y-97094425D01*
X154808724Y-97092301D01*
X154794683Y-97088784D01*
X154781054Y-97083907D01*
X154767969Y-97077718D01*
X154755553Y-97070277D01*
X154743927Y-97061654D01*
X154733202Y-97051933D01*
X154723481Y-97041208D01*
X154714858Y-97029582D01*
X154707417Y-97017166D01*
X154701228Y-97004081D01*
X154696351Y-96990452D01*
X154692834Y-96976411D01*
X154690710Y-96962093D01*
X154690000Y-96947635D01*
X154690000Y-96602635D01*
X154690710Y-96588177D01*
X154692834Y-96573859D01*
X154696351Y-96559818D01*
X154701228Y-96546189D01*
X154707417Y-96533104D01*
X154714858Y-96520688D01*
X154723481Y-96509062D01*
X154733202Y-96498337D01*
X154743927Y-96488616D01*
X154755553Y-96479993D01*
X154767969Y-96472552D01*
X154781054Y-96466363D01*
X154794683Y-96461486D01*
X154808724Y-96457969D01*
X154823042Y-96455845D01*
X154837500Y-96455135D01*
X155132500Y-96455135D01*
X155146958Y-96455845D01*
X155146958Y-96455845D01*
G37*
D11*
X154985000Y-96775135D03*
G04 #@! TD*
D10*
G04 #@! TO.C,R5*
G36*
X154176958Y-97471845D02*
X154191276Y-97473969D01*
X154205317Y-97477486D01*
X154218946Y-97482363D01*
X154232031Y-97488552D01*
X154244447Y-97495993D01*
X154256073Y-97504616D01*
X154266798Y-97514337D01*
X154276519Y-97525062D01*
X154285142Y-97536688D01*
X154292583Y-97549104D01*
X154298772Y-97562189D01*
X154303649Y-97575818D01*
X154307166Y-97589859D01*
X154309290Y-97604177D01*
X154310000Y-97618635D01*
X154310000Y-97963635D01*
X154309290Y-97978093D01*
X154307166Y-97992411D01*
X154303649Y-98006452D01*
X154298772Y-98020081D01*
X154292583Y-98033166D01*
X154285142Y-98045582D01*
X154276519Y-98057208D01*
X154266798Y-98067933D01*
X154256073Y-98077654D01*
X154244447Y-98086277D01*
X154232031Y-98093718D01*
X154218946Y-98099907D01*
X154205317Y-98104784D01*
X154191276Y-98108301D01*
X154176958Y-98110425D01*
X154162500Y-98111135D01*
X153867500Y-98111135D01*
X153853042Y-98110425D01*
X153838724Y-98108301D01*
X153824683Y-98104784D01*
X153811054Y-98099907D01*
X153797969Y-98093718D01*
X153785553Y-98086277D01*
X153773927Y-98077654D01*
X153763202Y-98067933D01*
X153753481Y-98057208D01*
X153744858Y-98045582D01*
X153737417Y-98033166D01*
X153731228Y-98020081D01*
X153726351Y-98006452D01*
X153722834Y-97992411D01*
X153720710Y-97978093D01*
X153720000Y-97963635D01*
X153720000Y-97618635D01*
X153720710Y-97604177D01*
X153722834Y-97589859D01*
X153726351Y-97575818D01*
X153731228Y-97562189D01*
X153737417Y-97549104D01*
X153744858Y-97536688D01*
X153753481Y-97525062D01*
X153763202Y-97514337D01*
X153773927Y-97504616D01*
X153785553Y-97495993D01*
X153797969Y-97488552D01*
X153811054Y-97482363D01*
X153824683Y-97477486D01*
X153838724Y-97473969D01*
X153853042Y-97471845D01*
X153867500Y-97471135D01*
X154162500Y-97471135D01*
X154176958Y-97471845D01*
X154176958Y-97471845D01*
G37*
D11*
X154015000Y-97791135D03*
D10*
G36*
X155146958Y-97471845D02*
X155161276Y-97473969D01*
X155175317Y-97477486D01*
X155188946Y-97482363D01*
X155202031Y-97488552D01*
X155214447Y-97495993D01*
X155226073Y-97504616D01*
X155236798Y-97514337D01*
X155246519Y-97525062D01*
X155255142Y-97536688D01*
X155262583Y-97549104D01*
X155268772Y-97562189D01*
X155273649Y-97575818D01*
X155277166Y-97589859D01*
X155279290Y-97604177D01*
X155280000Y-97618635D01*
X155280000Y-97963635D01*
X155279290Y-97978093D01*
X155277166Y-97992411D01*
X155273649Y-98006452D01*
X155268772Y-98020081D01*
X155262583Y-98033166D01*
X155255142Y-98045582D01*
X155246519Y-98057208D01*
X155236798Y-98067933D01*
X155226073Y-98077654D01*
X155214447Y-98086277D01*
X155202031Y-98093718D01*
X155188946Y-98099907D01*
X155175317Y-98104784D01*
X155161276Y-98108301D01*
X155146958Y-98110425D01*
X155132500Y-98111135D01*
X154837500Y-98111135D01*
X154823042Y-98110425D01*
X154808724Y-98108301D01*
X154794683Y-98104784D01*
X154781054Y-98099907D01*
X154767969Y-98093718D01*
X154755553Y-98086277D01*
X154743927Y-98077654D01*
X154733202Y-98067933D01*
X154723481Y-98057208D01*
X154714858Y-98045582D01*
X154707417Y-98033166D01*
X154701228Y-98020081D01*
X154696351Y-98006452D01*
X154692834Y-97992411D01*
X154690710Y-97978093D01*
X154690000Y-97963635D01*
X154690000Y-97618635D01*
X154690710Y-97604177D01*
X154692834Y-97589859D01*
X154696351Y-97575818D01*
X154701228Y-97562189D01*
X154707417Y-97549104D01*
X154714858Y-97536688D01*
X154723481Y-97525062D01*
X154733202Y-97514337D01*
X154743927Y-97504616D01*
X154755553Y-97495993D01*
X154767969Y-97488552D01*
X154781054Y-97482363D01*
X154794683Y-97477486D01*
X154808724Y-97473969D01*
X154823042Y-97471845D01*
X154837500Y-97471135D01*
X155132500Y-97471135D01*
X155146958Y-97471845D01*
X155146958Y-97471845D01*
G37*
D11*
X154985000Y-97791135D03*
G04 #@! TD*
D12*
G04 #@! TO.C,U1*
X147851000Y-97684000D03*
X147851000Y-97184000D03*
X147851000Y-96684000D03*
X147851000Y-96184000D03*
X147851000Y-95684000D03*
X152151000Y-95684000D03*
X152151000Y-96184000D03*
X152151000Y-96684000D03*
X152151000Y-97184000D03*
X152151000Y-97684000D03*
G04 #@! TD*
D10*
G04 #@! TO.C,R1*
G36*
X151203958Y-93826710D02*
X151218276Y-93828834D01*
X151232317Y-93832351D01*
X151245946Y-93837228D01*
X151259031Y-93843417D01*
X151271447Y-93850858D01*
X151283073Y-93859481D01*
X151293798Y-93869202D01*
X151303519Y-93879927D01*
X151312142Y-93891553D01*
X151319583Y-93903969D01*
X151325772Y-93917054D01*
X151330649Y-93930683D01*
X151334166Y-93944724D01*
X151336290Y-93959042D01*
X151337000Y-93973500D01*
X151337000Y-94268500D01*
X151336290Y-94282958D01*
X151334166Y-94297276D01*
X151330649Y-94311317D01*
X151325772Y-94324946D01*
X151319583Y-94338031D01*
X151312142Y-94350447D01*
X151303519Y-94362073D01*
X151293798Y-94372798D01*
X151283073Y-94382519D01*
X151271447Y-94391142D01*
X151259031Y-94398583D01*
X151245946Y-94404772D01*
X151232317Y-94409649D01*
X151218276Y-94413166D01*
X151203958Y-94415290D01*
X151189500Y-94416000D01*
X150844500Y-94416000D01*
X150830042Y-94415290D01*
X150815724Y-94413166D01*
X150801683Y-94409649D01*
X150788054Y-94404772D01*
X150774969Y-94398583D01*
X150762553Y-94391142D01*
X150750927Y-94382519D01*
X150740202Y-94372798D01*
X150730481Y-94362073D01*
X150721858Y-94350447D01*
X150714417Y-94338031D01*
X150708228Y-94324946D01*
X150703351Y-94311317D01*
X150699834Y-94297276D01*
X150697710Y-94282958D01*
X150697000Y-94268500D01*
X150697000Y-93973500D01*
X150697710Y-93959042D01*
X150699834Y-93944724D01*
X150703351Y-93930683D01*
X150708228Y-93917054D01*
X150714417Y-93903969D01*
X150721858Y-93891553D01*
X150730481Y-93879927D01*
X150740202Y-93869202D01*
X150750927Y-93859481D01*
X150762553Y-93850858D01*
X150774969Y-93843417D01*
X150788054Y-93837228D01*
X150801683Y-93832351D01*
X150815724Y-93828834D01*
X150830042Y-93826710D01*
X150844500Y-93826000D01*
X151189500Y-93826000D01*
X151203958Y-93826710D01*
X151203958Y-93826710D01*
G37*
D11*
X151017000Y-94121000D03*
D10*
G36*
X151203958Y-92856710D02*
X151218276Y-92858834D01*
X151232317Y-92862351D01*
X151245946Y-92867228D01*
X151259031Y-92873417D01*
X151271447Y-92880858D01*
X151283073Y-92889481D01*
X151293798Y-92899202D01*
X151303519Y-92909927D01*
X151312142Y-92921553D01*
X151319583Y-92933969D01*
X151325772Y-92947054D01*
X151330649Y-92960683D01*
X151334166Y-92974724D01*
X151336290Y-92989042D01*
X151337000Y-93003500D01*
X151337000Y-93298500D01*
X151336290Y-93312958D01*
X151334166Y-93327276D01*
X151330649Y-93341317D01*
X151325772Y-93354946D01*
X151319583Y-93368031D01*
X151312142Y-93380447D01*
X151303519Y-93392073D01*
X151293798Y-93402798D01*
X151283073Y-93412519D01*
X151271447Y-93421142D01*
X151259031Y-93428583D01*
X151245946Y-93434772D01*
X151232317Y-93439649D01*
X151218276Y-93443166D01*
X151203958Y-93445290D01*
X151189500Y-93446000D01*
X150844500Y-93446000D01*
X150830042Y-93445290D01*
X150815724Y-93443166D01*
X150801683Y-93439649D01*
X150788054Y-93434772D01*
X150774969Y-93428583D01*
X150762553Y-93421142D01*
X150750927Y-93412519D01*
X150740202Y-93402798D01*
X150730481Y-93392073D01*
X150721858Y-93380447D01*
X150714417Y-93368031D01*
X150708228Y-93354946D01*
X150703351Y-93341317D01*
X150699834Y-93327276D01*
X150697710Y-93312958D01*
X150697000Y-93298500D01*
X150697000Y-93003500D01*
X150697710Y-92989042D01*
X150699834Y-92974724D01*
X150703351Y-92960683D01*
X150708228Y-92947054D01*
X150714417Y-92933969D01*
X150721858Y-92921553D01*
X150730481Y-92909927D01*
X150740202Y-92899202D01*
X150750927Y-92889481D01*
X150762553Y-92880858D01*
X150774969Y-92873417D01*
X150788054Y-92867228D01*
X150801683Y-92862351D01*
X150815724Y-92858834D01*
X150830042Y-92856710D01*
X150844500Y-92856000D01*
X151189500Y-92856000D01*
X151203958Y-92856710D01*
X151203958Y-92856710D01*
G37*
D11*
X151017000Y-93151000D03*
G04 #@! TD*
D10*
G04 #@! TO.C,R3*
G36*
X150187958Y-92856710D02*
X150202276Y-92858834D01*
X150216317Y-92862351D01*
X150229946Y-92867228D01*
X150243031Y-92873417D01*
X150255447Y-92880858D01*
X150267073Y-92889481D01*
X150277798Y-92899202D01*
X150287519Y-92909927D01*
X150296142Y-92921553D01*
X150303583Y-92933969D01*
X150309772Y-92947054D01*
X150314649Y-92960683D01*
X150318166Y-92974724D01*
X150320290Y-92989042D01*
X150321000Y-93003500D01*
X150321000Y-93298500D01*
X150320290Y-93312958D01*
X150318166Y-93327276D01*
X150314649Y-93341317D01*
X150309772Y-93354946D01*
X150303583Y-93368031D01*
X150296142Y-93380447D01*
X150287519Y-93392073D01*
X150277798Y-93402798D01*
X150267073Y-93412519D01*
X150255447Y-93421142D01*
X150243031Y-93428583D01*
X150229946Y-93434772D01*
X150216317Y-93439649D01*
X150202276Y-93443166D01*
X150187958Y-93445290D01*
X150173500Y-93446000D01*
X149828500Y-93446000D01*
X149814042Y-93445290D01*
X149799724Y-93443166D01*
X149785683Y-93439649D01*
X149772054Y-93434772D01*
X149758969Y-93428583D01*
X149746553Y-93421142D01*
X149734927Y-93412519D01*
X149724202Y-93402798D01*
X149714481Y-93392073D01*
X149705858Y-93380447D01*
X149698417Y-93368031D01*
X149692228Y-93354946D01*
X149687351Y-93341317D01*
X149683834Y-93327276D01*
X149681710Y-93312958D01*
X149681000Y-93298500D01*
X149681000Y-93003500D01*
X149681710Y-92989042D01*
X149683834Y-92974724D01*
X149687351Y-92960683D01*
X149692228Y-92947054D01*
X149698417Y-92933969D01*
X149705858Y-92921553D01*
X149714481Y-92909927D01*
X149724202Y-92899202D01*
X149734927Y-92889481D01*
X149746553Y-92880858D01*
X149758969Y-92873417D01*
X149772054Y-92867228D01*
X149785683Y-92862351D01*
X149799724Y-92858834D01*
X149814042Y-92856710D01*
X149828500Y-92856000D01*
X150173500Y-92856000D01*
X150187958Y-92856710D01*
X150187958Y-92856710D01*
G37*
D11*
X150001000Y-93151000D03*
D10*
G36*
X150187958Y-93826710D02*
X150202276Y-93828834D01*
X150216317Y-93832351D01*
X150229946Y-93837228D01*
X150243031Y-93843417D01*
X150255447Y-93850858D01*
X150267073Y-93859481D01*
X150277798Y-93869202D01*
X150287519Y-93879927D01*
X150296142Y-93891553D01*
X150303583Y-93903969D01*
X150309772Y-93917054D01*
X150314649Y-93930683D01*
X150318166Y-93944724D01*
X150320290Y-93959042D01*
X150321000Y-93973500D01*
X150321000Y-94268500D01*
X150320290Y-94282958D01*
X150318166Y-94297276D01*
X150314649Y-94311317D01*
X150309772Y-94324946D01*
X150303583Y-94338031D01*
X150296142Y-94350447D01*
X150287519Y-94362073D01*
X150277798Y-94372798D01*
X150267073Y-94382519D01*
X150255447Y-94391142D01*
X150243031Y-94398583D01*
X150229946Y-94404772D01*
X150216317Y-94409649D01*
X150202276Y-94413166D01*
X150187958Y-94415290D01*
X150173500Y-94416000D01*
X149828500Y-94416000D01*
X149814042Y-94415290D01*
X149799724Y-94413166D01*
X149785683Y-94409649D01*
X149772054Y-94404772D01*
X149758969Y-94398583D01*
X149746553Y-94391142D01*
X149734927Y-94382519D01*
X149724202Y-94372798D01*
X149714481Y-94362073D01*
X149705858Y-94350447D01*
X149698417Y-94338031D01*
X149692228Y-94324946D01*
X149687351Y-94311317D01*
X149683834Y-94297276D01*
X149681710Y-94282958D01*
X149681000Y-94268500D01*
X149681000Y-93973500D01*
X149681710Y-93959042D01*
X149683834Y-93944724D01*
X149687351Y-93930683D01*
X149692228Y-93917054D01*
X149698417Y-93903969D01*
X149705858Y-93891553D01*
X149714481Y-93879927D01*
X149724202Y-93869202D01*
X149734927Y-93859481D01*
X149746553Y-93850858D01*
X149758969Y-93843417D01*
X149772054Y-93837228D01*
X149785683Y-93832351D01*
X149799724Y-93828834D01*
X149814042Y-93826710D01*
X149828500Y-93826000D01*
X150173500Y-93826000D01*
X150187958Y-93826710D01*
X150187958Y-93826710D01*
G37*
D11*
X150001000Y-94121000D03*
G04 #@! TD*
D10*
G04 #@! TO.C,R4*
G36*
X149171958Y-92856710D02*
X149186276Y-92858834D01*
X149200317Y-92862351D01*
X149213946Y-92867228D01*
X149227031Y-92873417D01*
X149239447Y-92880858D01*
X149251073Y-92889481D01*
X149261798Y-92899202D01*
X149271519Y-92909927D01*
X149280142Y-92921553D01*
X149287583Y-92933969D01*
X149293772Y-92947054D01*
X149298649Y-92960683D01*
X149302166Y-92974724D01*
X149304290Y-92989042D01*
X149305000Y-93003500D01*
X149305000Y-93298500D01*
X149304290Y-93312958D01*
X149302166Y-93327276D01*
X149298649Y-93341317D01*
X149293772Y-93354946D01*
X149287583Y-93368031D01*
X149280142Y-93380447D01*
X149271519Y-93392073D01*
X149261798Y-93402798D01*
X149251073Y-93412519D01*
X149239447Y-93421142D01*
X149227031Y-93428583D01*
X149213946Y-93434772D01*
X149200317Y-93439649D01*
X149186276Y-93443166D01*
X149171958Y-93445290D01*
X149157500Y-93446000D01*
X148812500Y-93446000D01*
X148798042Y-93445290D01*
X148783724Y-93443166D01*
X148769683Y-93439649D01*
X148756054Y-93434772D01*
X148742969Y-93428583D01*
X148730553Y-93421142D01*
X148718927Y-93412519D01*
X148708202Y-93402798D01*
X148698481Y-93392073D01*
X148689858Y-93380447D01*
X148682417Y-93368031D01*
X148676228Y-93354946D01*
X148671351Y-93341317D01*
X148667834Y-93327276D01*
X148665710Y-93312958D01*
X148665000Y-93298500D01*
X148665000Y-93003500D01*
X148665710Y-92989042D01*
X148667834Y-92974724D01*
X148671351Y-92960683D01*
X148676228Y-92947054D01*
X148682417Y-92933969D01*
X148689858Y-92921553D01*
X148698481Y-92909927D01*
X148708202Y-92899202D01*
X148718927Y-92889481D01*
X148730553Y-92880858D01*
X148742969Y-92873417D01*
X148756054Y-92867228D01*
X148769683Y-92862351D01*
X148783724Y-92858834D01*
X148798042Y-92856710D01*
X148812500Y-92856000D01*
X149157500Y-92856000D01*
X149171958Y-92856710D01*
X149171958Y-92856710D01*
G37*
D11*
X148985000Y-93151000D03*
D10*
G36*
X149171958Y-93826710D02*
X149186276Y-93828834D01*
X149200317Y-93832351D01*
X149213946Y-93837228D01*
X149227031Y-93843417D01*
X149239447Y-93850858D01*
X149251073Y-93859481D01*
X149261798Y-93869202D01*
X149271519Y-93879927D01*
X149280142Y-93891553D01*
X149287583Y-93903969D01*
X149293772Y-93917054D01*
X149298649Y-93930683D01*
X149302166Y-93944724D01*
X149304290Y-93959042D01*
X149305000Y-93973500D01*
X149305000Y-94268500D01*
X149304290Y-94282958D01*
X149302166Y-94297276D01*
X149298649Y-94311317D01*
X149293772Y-94324946D01*
X149287583Y-94338031D01*
X149280142Y-94350447D01*
X149271519Y-94362073D01*
X149261798Y-94372798D01*
X149251073Y-94382519D01*
X149239447Y-94391142D01*
X149227031Y-94398583D01*
X149213946Y-94404772D01*
X149200317Y-94409649D01*
X149186276Y-94413166D01*
X149171958Y-94415290D01*
X149157500Y-94416000D01*
X148812500Y-94416000D01*
X148798042Y-94415290D01*
X148783724Y-94413166D01*
X148769683Y-94409649D01*
X148756054Y-94404772D01*
X148742969Y-94398583D01*
X148730553Y-94391142D01*
X148718927Y-94382519D01*
X148708202Y-94372798D01*
X148698481Y-94362073D01*
X148689858Y-94350447D01*
X148682417Y-94338031D01*
X148676228Y-94324946D01*
X148671351Y-94311317D01*
X148667834Y-94297276D01*
X148665710Y-94282958D01*
X148665000Y-94268500D01*
X148665000Y-93973500D01*
X148665710Y-93959042D01*
X148667834Y-93944724D01*
X148671351Y-93930683D01*
X148676228Y-93917054D01*
X148682417Y-93903969D01*
X148689858Y-93891553D01*
X148698481Y-93879927D01*
X148708202Y-93869202D01*
X148718927Y-93859481D01*
X148730553Y-93850858D01*
X148742969Y-93843417D01*
X148756054Y-93837228D01*
X148769683Y-93832351D01*
X148783724Y-93828834D01*
X148798042Y-93826710D01*
X148812500Y-93826000D01*
X149157500Y-93826000D01*
X149171958Y-93826710D01*
X149171958Y-93826710D01*
G37*
D11*
X148985000Y-94121000D03*
G04 #@! TD*
D10*
G04 #@! TO.C,C1*
G36*
X148155958Y-92856710D02*
X148170276Y-92858834D01*
X148184317Y-92862351D01*
X148197946Y-92867228D01*
X148211031Y-92873417D01*
X148223447Y-92880858D01*
X148235073Y-92889481D01*
X148245798Y-92899202D01*
X148255519Y-92909927D01*
X148264142Y-92921553D01*
X148271583Y-92933969D01*
X148277772Y-92947054D01*
X148282649Y-92960683D01*
X148286166Y-92974724D01*
X148288290Y-92989042D01*
X148289000Y-93003500D01*
X148289000Y-93298500D01*
X148288290Y-93312958D01*
X148286166Y-93327276D01*
X148282649Y-93341317D01*
X148277772Y-93354946D01*
X148271583Y-93368031D01*
X148264142Y-93380447D01*
X148255519Y-93392073D01*
X148245798Y-93402798D01*
X148235073Y-93412519D01*
X148223447Y-93421142D01*
X148211031Y-93428583D01*
X148197946Y-93434772D01*
X148184317Y-93439649D01*
X148170276Y-93443166D01*
X148155958Y-93445290D01*
X148141500Y-93446000D01*
X147796500Y-93446000D01*
X147782042Y-93445290D01*
X147767724Y-93443166D01*
X147753683Y-93439649D01*
X147740054Y-93434772D01*
X147726969Y-93428583D01*
X147714553Y-93421142D01*
X147702927Y-93412519D01*
X147692202Y-93402798D01*
X147682481Y-93392073D01*
X147673858Y-93380447D01*
X147666417Y-93368031D01*
X147660228Y-93354946D01*
X147655351Y-93341317D01*
X147651834Y-93327276D01*
X147649710Y-93312958D01*
X147649000Y-93298500D01*
X147649000Y-93003500D01*
X147649710Y-92989042D01*
X147651834Y-92974724D01*
X147655351Y-92960683D01*
X147660228Y-92947054D01*
X147666417Y-92933969D01*
X147673858Y-92921553D01*
X147682481Y-92909927D01*
X147692202Y-92899202D01*
X147702927Y-92889481D01*
X147714553Y-92880858D01*
X147726969Y-92873417D01*
X147740054Y-92867228D01*
X147753683Y-92862351D01*
X147767724Y-92858834D01*
X147782042Y-92856710D01*
X147796500Y-92856000D01*
X148141500Y-92856000D01*
X148155958Y-92856710D01*
X148155958Y-92856710D01*
G37*
D11*
X147969000Y-93151000D03*
D10*
G36*
X148155958Y-93826710D02*
X148170276Y-93828834D01*
X148184317Y-93832351D01*
X148197946Y-93837228D01*
X148211031Y-93843417D01*
X148223447Y-93850858D01*
X148235073Y-93859481D01*
X148245798Y-93869202D01*
X148255519Y-93879927D01*
X148264142Y-93891553D01*
X148271583Y-93903969D01*
X148277772Y-93917054D01*
X148282649Y-93930683D01*
X148286166Y-93944724D01*
X148288290Y-93959042D01*
X148289000Y-93973500D01*
X148289000Y-94268500D01*
X148288290Y-94282958D01*
X148286166Y-94297276D01*
X148282649Y-94311317D01*
X148277772Y-94324946D01*
X148271583Y-94338031D01*
X148264142Y-94350447D01*
X148255519Y-94362073D01*
X148245798Y-94372798D01*
X148235073Y-94382519D01*
X148223447Y-94391142D01*
X148211031Y-94398583D01*
X148197946Y-94404772D01*
X148184317Y-94409649D01*
X148170276Y-94413166D01*
X148155958Y-94415290D01*
X148141500Y-94416000D01*
X147796500Y-94416000D01*
X147782042Y-94415290D01*
X147767724Y-94413166D01*
X147753683Y-94409649D01*
X147740054Y-94404772D01*
X147726969Y-94398583D01*
X147714553Y-94391142D01*
X147702927Y-94382519D01*
X147692202Y-94372798D01*
X147682481Y-94362073D01*
X147673858Y-94350447D01*
X147666417Y-94338031D01*
X147660228Y-94324946D01*
X147655351Y-94311317D01*
X147651834Y-94297276D01*
X147649710Y-94282958D01*
X147649000Y-94268500D01*
X147649000Y-93973500D01*
X147649710Y-93959042D01*
X147651834Y-93944724D01*
X147655351Y-93930683D01*
X147660228Y-93917054D01*
X147666417Y-93903969D01*
X147673858Y-93891553D01*
X147682481Y-93879927D01*
X147692202Y-93869202D01*
X147702927Y-93859481D01*
X147714553Y-93850858D01*
X147726969Y-93843417D01*
X147740054Y-93837228D01*
X147753683Y-93832351D01*
X147767724Y-93828834D01*
X147782042Y-93826710D01*
X147796500Y-93826000D01*
X148141500Y-93826000D01*
X148155958Y-93826710D01*
X148155958Y-93826710D01*
G37*
D11*
X147969000Y-94121000D03*
G04 #@! TD*
D10*
G04 #@! TO.C,R7*
G36*
X146583958Y-97253710D02*
X146598276Y-97255834D01*
X146612317Y-97259351D01*
X146625946Y-97264228D01*
X146639031Y-97270417D01*
X146651447Y-97277858D01*
X146663073Y-97286481D01*
X146673798Y-97296202D01*
X146683519Y-97306927D01*
X146692142Y-97318553D01*
X146699583Y-97330969D01*
X146705772Y-97344054D01*
X146710649Y-97357683D01*
X146714166Y-97371724D01*
X146716290Y-97386042D01*
X146717000Y-97400500D01*
X146717000Y-97745500D01*
X146716290Y-97759958D01*
X146714166Y-97774276D01*
X146710649Y-97788317D01*
X146705772Y-97801946D01*
X146699583Y-97815031D01*
X146692142Y-97827447D01*
X146683519Y-97839073D01*
X146673798Y-97849798D01*
X146663073Y-97859519D01*
X146651447Y-97868142D01*
X146639031Y-97875583D01*
X146625946Y-97881772D01*
X146612317Y-97886649D01*
X146598276Y-97890166D01*
X146583958Y-97892290D01*
X146569500Y-97893000D01*
X146274500Y-97893000D01*
X146260042Y-97892290D01*
X146245724Y-97890166D01*
X146231683Y-97886649D01*
X146218054Y-97881772D01*
X146204969Y-97875583D01*
X146192553Y-97868142D01*
X146180927Y-97859519D01*
X146170202Y-97849798D01*
X146160481Y-97839073D01*
X146151858Y-97827447D01*
X146144417Y-97815031D01*
X146138228Y-97801946D01*
X146133351Y-97788317D01*
X146129834Y-97774276D01*
X146127710Y-97759958D01*
X146127000Y-97745500D01*
X146127000Y-97400500D01*
X146127710Y-97386042D01*
X146129834Y-97371724D01*
X146133351Y-97357683D01*
X146138228Y-97344054D01*
X146144417Y-97330969D01*
X146151858Y-97318553D01*
X146160481Y-97306927D01*
X146170202Y-97296202D01*
X146180927Y-97286481D01*
X146192553Y-97277858D01*
X146204969Y-97270417D01*
X146218054Y-97264228D01*
X146231683Y-97259351D01*
X146245724Y-97255834D01*
X146260042Y-97253710D01*
X146274500Y-97253000D01*
X146569500Y-97253000D01*
X146583958Y-97253710D01*
X146583958Y-97253710D01*
G37*
D11*
X146422000Y-97573000D03*
D10*
G36*
X145613958Y-97253710D02*
X145628276Y-97255834D01*
X145642317Y-97259351D01*
X145655946Y-97264228D01*
X145669031Y-97270417D01*
X145681447Y-97277858D01*
X145693073Y-97286481D01*
X145703798Y-97296202D01*
X145713519Y-97306927D01*
X145722142Y-97318553D01*
X145729583Y-97330969D01*
X145735772Y-97344054D01*
X145740649Y-97357683D01*
X145744166Y-97371724D01*
X145746290Y-97386042D01*
X145747000Y-97400500D01*
X145747000Y-97745500D01*
X145746290Y-97759958D01*
X145744166Y-97774276D01*
X145740649Y-97788317D01*
X145735772Y-97801946D01*
X145729583Y-97815031D01*
X145722142Y-97827447D01*
X145713519Y-97839073D01*
X145703798Y-97849798D01*
X145693073Y-97859519D01*
X145681447Y-97868142D01*
X145669031Y-97875583D01*
X145655946Y-97881772D01*
X145642317Y-97886649D01*
X145628276Y-97890166D01*
X145613958Y-97892290D01*
X145599500Y-97893000D01*
X145304500Y-97893000D01*
X145290042Y-97892290D01*
X145275724Y-97890166D01*
X145261683Y-97886649D01*
X145248054Y-97881772D01*
X145234969Y-97875583D01*
X145222553Y-97868142D01*
X145210927Y-97859519D01*
X145200202Y-97849798D01*
X145190481Y-97839073D01*
X145181858Y-97827447D01*
X145174417Y-97815031D01*
X145168228Y-97801946D01*
X145163351Y-97788317D01*
X145159834Y-97774276D01*
X145157710Y-97759958D01*
X145157000Y-97745500D01*
X145157000Y-97400500D01*
X145157710Y-97386042D01*
X145159834Y-97371724D01*
X145163351Y-97357683D01*
X145168228Y-97344054D01*
X145174417Y-97330969D01*
X145181858Y-97318553D01*
X145190481Y-97306927D01*
X145200202Y-97296202D01*
X145210927Y-97286481D01*
X145222553Y-97277858D01*
X145234969Y-97270417D01*
X145248054Y-97264228D01*
X145261683Y-97259351D01*
X145275724Y-97255834D01*
X145290042Y-97253710D01*
X145304500Y-97253000D01*
X145599500Y-97253000D01*
X145613958Y-97253710D01*
X145613958Y-97253710D01*
G37*
D11*
X145452000Y-97573000D03*
G04 #@! TD*
D10*
G04 #@! TO.C,R8*
G36*
X146583958Y-99539710D02*
X146598276Y-99541834D01*
X146612317Y-99545351D01*
X146625946Y-99550228D01*
X146639031Y-99556417D01*
X146651447Y-99563858D01*
X146663073Y-99572481D01*
X146673798Y-99582202D01*
X146683519Y-99592927D01*
X146692142Y-99604553D01*
X146699583Y-99616969D01*
X146705772Y-99630054D01*
X146710649Y-99643683D01*
X146714166Y-99657724D01*
X146716290Y-99672042D01*
X146717000Y-99686500D01*
X146717000Y-100031500D01*
X146716290Y-100045958D01*
X146714166Y-100060276D01*
X146710649Y-100074317D01*
X146705772Y-100087946D01*
X146699583Y-100101031D01*
X146692142Y-100113447D01*
X146683519Y-100125073D01*
X146673798Y-100135798D01*
X146663073Y-100145519D01*
X146651447Y-100154142D01*
X146639031Y-100161583D01*
X146625946Y-100167772D01*
X146612317Y-100172649D01*
X146598276Y-100176166D01*
X146583958Y-100178290D01*
X146569500Y-100179000D01*
X146274500Y-100179000D01*
X146260042Y-100178290D01*
X146245724Y-100176166D01*
X146231683Y-100172649D01*
X146218054Y-100167772D01*
X146204969Y-100161583D01*
X146192553Y-100154142D01*
X146180927Y-100145519D01*
X146170202Y-100135798D01*
X146160481Y-100125073D01*
X146151858Y-100113447D01*
X146144417Y-100101031D01*
X146138228Y-100087946D01*
X146133351Y-100074317D01*
X146129834Y-100060276D01*
X146127710Y-100045958D01*
X146127000Y-100031500D01*
X146127000Y-99686500D01*
X146127710Y-99672042D01*
X146129834Y-99657724D01*
X146133351Y-99643683D01*
X146138228Y-99630054D01*
X146144417Y-99616969D01*
X146151858Y-99604553D01*
X146160481Y-99592927D01*
X146170202Y-99582202D01*
X146180927Y-99572481D01*
X146192553Y-99563858D01*
X146204969Y-99556417D01*
X146218054Y-99550228D01*
X146231683Y-99545351D01*
X146245724Y-99541834D01*
X146260042Y-99539710D01*
X146274500Y-99539000D01*
X146569500Y-99539000D01*
X146583958Y-99539710D01*
X146583958Y-99539710D01*
G37*
D11*
X146422000Y-99859000D03*
D10*
G36*
X145613958Y-99539710D02*
X145628276Y-99541834D01*
X145642317Y-99545351D01*
X145655946Y-99550228D01*
X145669031Y-99556417D01*
X145681447Y-99563858D01*
X145693073Y-99572481D01*
X145703798Y-99582202D01*
X145713519Y-99592927D01*
X145722142Y-99604553D01*
X145729583Y-99616969D01*
X145735772Y-99630054D01*
X145740649Y-99643683D01*
X145744166Y-99657724D01*
X145746290Y-99672042D01*
X145747000Y-99686500D01*
X145747000Y-100031500D01*
X145746290Y-100045958D01*
X145744166Y-100060276D01*
X145740649Y-100074317D01*
X145735772Y-100087946D01*
X145729583Y-100101031D01*
X145722142Y-100113447D01*
X145713519Y-100125073D01*
X145703798Y-100135798D01*
X145693073Y-100145519D01*
X145681447Y-100154142D01*
X145669031Y-100161583D01*
X145655946Y-100167772D01*
X145642317Y-100172649D01*
X145628276Y-100176166D01*
X145613958Y-100178290D01*
X145599500Y-100179000D01*
X145304500Y-100179000D01*
X145290042Y-100178290D01*
X145275724Y-100176166D01*
X145261683Y-100172649D01*
X145248054Y-100167772D01*
X145234969Y-100161583D01*
X145222553Y-100154142D01*
X145210927Y-100145519D01*
X145200202Y-100135798D01*
X145190481Y-100125073D01*
X145181858Y-100113447D01*
X145174417Y-100101031D01*
X145168228Y-100087946D01*
X145163351Y-100074317D01*
X145159834Y-100060276D01*
X145157710Y-100045958D01*
X145157000Y-100031500D01*
X145157000Y-99686500D01*
X145157710Y-99672042D01*
X145159834Y-99657724D01*
X145163351Y-99643683D01*
X145168228Y-99630054D01*
X145174417Y-99616969D01*
X145181858Y-99604553D01*
X145190481Y-99592927D01*
X145200202Y-99582202D01*
X145210927Y-99572481D01*
X145222553Y-99563858D01*
X145234969Y-99556417D01*
X145248054Y-99550228D01*
X145261683Y-99545351D01*
X145275724Y-99541834D01*
X145290042Y-99539710D01*
X145304500Y-99539000D01*
X145599500Y-99539000D01*
X145613958Y-99539710D01*
X145613958Y-99539710D01*
G37*
D11*
X145452000Y-99859000D03*
G04 #@! TD*
D13*
G04 #@! TO.C,J3*
X143955000Y-86467000D03*
D14*
X145730000Y-89117000D03*
X146380000Y-89117000D03*
X143780000Y-89117000D03*
X144430000Y-89117000D03*
X145080000Y-89117000D03*
D13*
X146205000Y-86467000D03*
D15*
X142760000Y-88697000D03*
X147400000Y-88697000D03*
G04 #@! TD*
M02*
